<svg xmlns="http://www.w3.org/2000/svg" width="400" height="400" viewBox="0 0 400 400" role="img">
  <!-- Gray triangle -->
  <path d="M407.949,579.206l-296.571.1A41.125,41.125,0,0,1,75.665,517.5L223.856,247.726a41.215,41.215,0,0,1,71.386-.025l148.4,269.7a41.214,41.214,0,0,1-35.69,61.8h0ZM73.813,538.1c0,6.442,32.725-7.44,36.115-1.572,6.782,11.736-12.107,39.062,1.448,39.057,0,0,322.261-7.12,329.035-18.861a37.111,37.111,0,0,0-.014-37.495L292,249.529a37.1,37.1,0,0,0-32.458-18.7c-13.549,0-185.729,300.833-185.73,307.277h0Z" 
        transform="translate(-60 -220)" 
        fill="#3f3d56"/>
  
  <!-- Blue circle + exclamation -->
  <g transform="translate(100 120)">
    <circle cx="103.25" cy="103.25" r="103.25" fill="#1b84ff"/>
    <path d="M13.347,7.97,12.264-83.3H30.682L29.508,7.97Zm8.216,38.255a11.746,11.746,0,0,1-8.622-3.566,12.1,12.1,0,0,1,0-17.154,11.746,11.746,0,0,1,8.622-3.566,11.6,11.6,0,0,1,8.577,3.566,11.822,11.822,0,0,1,3.521,8.622A11.716,11.716,0,0,1,30.14,42.66,11.6,11.6,0,0,1,21.563,46.226Z" 
          transform="translate(81.734 121.789)" 
          fill="#fff"/>
  </g>
</svg>
