<svg width="106" height="106" viewBox="0 0 106 106" fill="none" xmlns="http://www.w3.org/2000/svg">
<path d="M52.5391 0.644532L0.0390625 53.1445L52.5391 105.645L105.039 53.1445L52.5391 0.644532Z" fill="#3797E4"/>
<path d="M52.5401 6.40911L5.80469 53.1445L52.5401 99.8799L99.2755 53.1445L52.5401 6.40911Z" fill="white"/>
<path d="M52.539 12.8438L12.2383 53.1445L52.539 93.4453L92.8398 53.1445L52.539 12.8438Z" fill="#2C2C2C"/>
<path d="M90.1264 38.2305H14.9567L0.0410156 53.1462L14.9567 68.0619H90.1264L105.042 53.1462L90.1264 38.2305Z" fill="#3797E4"/>
<path d="M74.5078 56.5205V46.2188H77.9887C78.7935 46.2188 79.4541 46.3562 79.9706 46.6312C80.487 46.9029 80.8693 47.2768 81.1175 47.753C81.3656 48.2291 81.4897 48.7707 81.4897 49.3777C81.4897 49.9847 81.3656 50.5229 81.1175 50.9924C80.8693 51.4619 80.4887 51.8307 79.9756 52.099C79.4625 52.3639 78.8069 52.4964 78.0088 52.4964H75.1919V51.3696H77.9686C78.5185 51.3696 78.9612 51.2892 79.2965 51.1282C79.6352 50.9672 79.88 50.7392 80.0309 50.4441C80.1852 50.1456 80.2623 49.7902 80.2623 49.3777C80.2623 48.9652 80.1852 48.6047 80.0309 48.2962C79.8767 47.9877 79.6302 47.7496 79.2915 47.5819C78.9528 47.4109 78.5051 47.3254 77.9484 47.3254H75.7553V56.5205H74.5078ZM79.3569 51.8928L81.8921 56.5205H80.4434L77.9484 51.8928H79.3569Z" fill="#2C2C2C"/>
<path d="M70.7684 46.2188H72.0158V53.0397C72.0158 53.7439 71.8498 54.3727 71.5179 54.926C71.1892 55.4759 70.7248 55.9102 70.1245 56.2288C69.5242 56.544 68.82 56.7016 68.0118 56.7016C67.2036 56.7016 66.4994 56.544 65.8992 56.2288C65.2989 55.9102 64.8328 55.4759 64.5008 54.926C64.1721 54.3727 64.0078 53.7439 64.0078 53.0397V46.2188H65.2553V52.9391C65.2553 53.4421 65.366 53.8898 65.5873 54.2821C65.8086 54.6711 66.1238 54.9779 66.533 55.2026C66.9454 55.424 67.4384 55.5346 68.0118 55.5346C68.5853 55.5346 69.0782 55.424 69.4907 55.2026C69.9032 54.9779 70.2184 54.6711 70.4364 54.2821C70.6577 53.8898 70.7684 53.4421 70.7684 52.9391V46.2188Z" fill="#2C2C2C"/>
<path d="M61.9109 51.3699C61.9109 52.4564 61.7148 53.3953 61.3224 54.1868C60.9301 54.9782 60.3918 55.5885 59.7077 56.0177C59.0236 56.447 58.2423 56.6616 57.3637 56.6616C56.4851 56.6616 55.7037 56.447 55.0196 56.0177C54.3355 55.5885 53.7973 54.9782 53.4049 54.1868C53.0126 53.3953 52.8164 52.4564 52.8164 51.3699C52.8164 50.2833 53.0126 49.3444 53.4049 48.553C53.7973 47.7616 54.3355 47.1512 55.0196 46.722C55.7037 46.2927 56.4851 46.0781 57.3637 46.0781C58.2423 46.0781 59.0236 46.2927 59.7077 46.722C60.3918 47.1512 60.9301 47.7616 61.3224 48.553C61.7148 49.3444 61.9109 50.2833 61.9109 51.3699ZM60.7037 51.3699C60.7037 50.4778 60.5545 49.725 60.256 49.1113C59.9609 48.4976 59.5602 48.0332 59.0538 47.718C58.5508 47.4027 57.9874 47.2451 57.3637 47.2451C56.7399 47.2451 56.1749 47.4027 55.6685 47.718C55.1655 48.0332 54.7648 48.4976 54.4663 49.1113C54.1712 49.725 54.0236 50.4778 54.0236 51.3699C54.0236 52.2619 54.1712 53.0147 54.4663 53.6284C54.7648 54.2421 55.1655 54.7065 55.6685 55.0218C56.1749 55.337 56.7399 55.4946 57.3637 55.4946C57.9874 55.4946 58.5508 55.337 59.0538 55.0218C59.5602 54.7065 59.9609 54.2421 60.256 53.6284C60.5545 53.0147 60.7037 52.2619 60.7037 51.3699Z" fill="#2C2C2C"/>
<path d="M44.0059 56.5205V46.2188H47.6075C48.3251 46.2188 48.917 46.3428 49.3831 46.591C49.8492 46.8358 50.1963 47.1661 50.4244 47.5819C50.6524 47.9944 50.7664 48.4521 50.7664 48.9552C50.7664 49.3978 50.6876 49.7633 50.53 50.0517C50.3757 50.3401 50.1712 50.5682 49.9163 50.7358C49.6648 50.9035 49.3915 51.0276 49.0964 51.1081V51.2087C49.4116 51.2288 49.7285 51.3395 50.0471 51.5407C50.3657 51.7419 50.6323 52.0303 50.8469 52.4059C51.0615 52.7814 51.1688 53.2409 51.1688 53.7841C51.1688 54.3006 51.0514 54.765 50.8167 55.1775C50.582 55.59 50.2114 55.9169 49.705 56.1584C49.1987 56.3998 48.5397 56.5205 47.7282 56.5205H44.0059ZM45.2533 55.4139H47.7282C48.5431 55.4139 49.1215 55.2563 49.4636 54.9411C49.809 54.6225 49.9817 54.2368 49.9817 53.7841C49.9817 53.4354 49.8928 53.1134 49.7151 52.8183C49.5374 52.5199 49.2842 52.2818 48.9555 52.104C48.6269 51.923 48.2379 51.8324 47.7885 51.8324H45.2533V55.4139ZM45.2533 50.7459H47.5672C47.9428 50.7459 48.2815 50.6721 48.5833 50.5246C48.8885 50.377 49.1299 50.1691 49.3077 49.9008C49.4887 49.6326 49.5793 49.3173 49.5793 48.9552C49.5793 48.5024 49.4217 48.1185 49.1064 47.8033C48.7912 47.4847 48.2916 47.3254 47.6075 47.3254H45.2533V50.7459Z" fill="#2C2C2C"/>
<path d="M34.8567 56.5205H33.5488L37.3315 46.2188H38.6192L42.4019 56.5205H41.0941L38.0156 47.8485H37.9351L34.8567 56.5205ZM35.3396 52.4964H40.6112V53.603H35.3396V52.4964Z" fill="#2C2C2C"/>
<path d="M25.8164 56.5205V46.2188H27.0639V55.4139H31.8526V56.5205H25.8164Z" fill="#2C2C2C"/>
<path d="M17.4706 54.2562C17.5641 54.2631 17.661 54.2691 17.7595 54.2691L20.5696 54.289V50.7032L17.758 50.7281C17.662 50.7291 17.5656 50.7351 17.4721 50.7445C16.6975 49.0317 14.9747 47.8359 12.9745 47.8359C11.5162 47.8359 10.1385 48.4763 9.19784 49.5965C9.09095 49.7213 9.06808 49.8993 9.13769 50.0499C9.20729 50.2001 9.35894 50.2955 9.5245 50.295H12.9143L14.1981 52.4449L12.9138 54.7016H9.5245C9.35844 54.7026 9.20829 54.7981 9.13769 54.9477C9.06708 55.0984 9.09145 55.2759 9.19834 55.4027C10.1385 56.5204 11.5152 57.1617 12.9735 57.1617C14.9712 57.1622 16.6955 55.968 17.4706 54.2562Z" fill="#2C2C2C"/>
<path d="M86.9408 54.2562C86.8473 54.2631 86.7504 54.2691 86.6519 54.2691L83.8418 54.289V50.7032L86.6534 50.7281C86.7494 50.7291 86.8458 50.7351 86.9393 50.7445C87.7139 49.0317 89.4367 47.8359 91.4369 47.8359C92.8951 47.8359 94.2728 48.4763 95.2135 49.5965C95.3204 49.7213 95.3433 49.8993 95.2737 50.0499C95.2041 50.2001 95.0524 50.2955 94.8869 50.295H91.497L90.2133 52.4449L91.4975 54.7016H94.8869C95.0529 54.7026 95.2031 54.7981 95.2737 54.9477C95.3438 55.0984 95.3199 55.2759 95.213 55.4027C94.2729 56.5204 92.8961 57.1617 91.4379 57.1617C89.4402 57.1622 87.7159 55.968 86.9408 54.2562Z" fill="#2C2C2C"/>
<path d="M59.3945 28.0117H60.1467L61.651 30.5436H61.7145L63.2188 28.0117H63.9709L62.0111 31.2004V33.4356H61.3543V31.2004L59.3945 28.0117Z" fill="white"/>
<path d="M55.127 33.4356V28.0117H56.9596C57.3851 28.0117 57.733 28.0885 58.0031 28.2421C58.275 28.394 58.4763 28.5997 58.6069 28.8592C58.7376 29.1187 58.8029 29.4083 58.8029 29.7279C58.8029 30.0474 58.7376 30.3379 58.6069 30.5992C58.478 30.8605 58.2785 31.0688 58.0084 31.2242C57.7383 31.3778 57.3922 31.4546 56.9702 31.4546H55.6566V30.872H56.949C57.2404 30.872 57.4743 30.8217 57.6509 30.721C57.8274 30.6204 57.9554 30.4844 58.0349 30.3132C58.1161 30.1401 58.1567 29.945 58.1567 29.7279C58.1567 29.5107 58.1161 29.3165 58.0349 29.1452C57.9554 28.974 57.8265 28.8398 57.6482 28.7427C57.4699 28.6438 57.2333 28.5944 56.9384 28.5944H55.7838V33.4356H55.127Z" fill="white"/>
<path d="M50.3926 33.4356V28.0117H52.2253C52.6508 28.0117 52.9986 28.0885 53.2687 28.2421C53.5406 28.394 53.7419 28.5997 53.8726 28.8592C54.0032 29.1187 54.0685 29.4083 54.0685 29.7279C54.0685 30.0474 54.0032 30.3379 53.8726 30.5992C53.7437 30.8605 53.5442 31.0688 53.274 31.2242C53.0039 31.3778 52.6578 31.4546 52.2359 31.4546H50.9223V30.872H52.2147C52.506 30.872 52.7399 30.8217 52.9165 30.721C53.093 30.6204 53.2211 30.4844 53.3005 30.3132C53.3817 30.1401 53.4223 29.945 53.4223 29.7279C53.4223 29.5107 53.3817 29.3165 53.3005 29.1452C53.2211 28.974 53.0922 28.8398 52.9138 28.7427C52.7355 28.6438 52.4989 28.5944 52.2041 28.5944H51.0494V33.4356H50.3926Z" fill="white"/>
<path d="M45.5753 33.4356H44.8867L46.8783 28.0117H47.5563L49.5479 33.4356H48.8593L47.2385 28.8698H47.1961L45.5753 33.4356ZM45.8295 31.3169H48.6051V31.8995H45.8295V31.3169Z" fill="white"/>
<path d="M39.832 33.4356V28.0117H40.4888V30.427H43.3809V28.0117H44.0377V33.4356H43.3809V31.0097H40.4888V33.4356H39.832Z" fill="white"/>
<path d="M48.0569 72.57C48.0569 75.2469 50.2266 77.4167 52.9035 77.4167C55.5804 77.4167 57.7501 75.2469 57.7501 72.57C57.7501 72.5661 57.7496 72.5621 57.7496 72.5586H61.3876C61.3876 72.8763 61.3702 73.195 61.3344 73.5122C61.3075 73.7509 61.0296 73.9303 60.789 73.9303C60.0114 73.9303 59.3213 74.3868 59.0324 75.0928C58.7371 75.8162 58.9275 76.6594 59.5067 77.1909C59.6892 77.3575 59.711 77.6369 59.5584 77.8308C59.1602 78.3359 58.7087 78.7924 58.2145 79.1881C58.0211 79.3433 57.7377 79.3219 57.5696 79.1359C57.0635 78.5761 56.1551 78.3678 55.4531 78.6606C54.7227 78.9679 54.2623 79.7082 54.3071 80.5027C54.322 80.7523 54.1395 80.9691 53.8909 80.9984C53.257 81.072 52.6176 81.074 51.9817 81.0034C51.7366 80.976 51.5536 80.7642 51.5616 80.5176C51.5894 79.7306 51.1231 79.0037 50.4002 78.7073C49.7066 78.4244 48.8047 78.6308 48.2995 79.1856C48.133 79.3686 47.8536 79.391 47.6592 79.2393C47.151 78.8406 46.6886 78.3837 46.2869 77.8825C46.1303 77.6876 46.1537 77.4052 46.3376 77.2377C46.9283 76.7027 47.1187 75.8525 46.8119 75.1206C46.5191 74.4231 45.7952 73.9736 44.9659 73.9736C44.6969 73.9821 44.5055 73.8016 44.4756 73.557C44.4369 73.2268 44.419 72.8927 44.42 72.5586H48.0574C48.0574 72.5621 48.0569 72.5661 48.0569 72.57Z" fill="#3797E4"/>
<path d="M65.2191 62.625H53.3343H52.0351H40.1503L35.3867 67.8694L40.1503 72.8741H52.0351H53.3343H65.2191L69.9827 67.8694L65.2191 62.625Z" fill="white"/>
<path d="M60.2494 68.5066V70.6683H58.2409V68.4811L55.9941 64.7109H58.1132L59.3302 66.7705L60.5557 64.7109H62.4961L60.2494 68.5066Z" fill="#2C2C2C"/>
<path d="M54.2942 69.63H52.0304L51.6304 70.6683H49.5879L52.1921 64.7109H54.1665L56.7707 70.6683H54.6942L54.2942 69.63ZM53.741 68.1832L53.1623 66.6854L52.5836 68.1832H53.741Z" fill="#2C2C2C"/>
<path d="M43.2871 64.7109H46.2232C46.887 64.7109 47.4714 64.8329 47.9764 65.0769C48.487 65.3152 48.8813 65.6584 49.1593 66.1067C49.443 66.5549 49.5848 67.0825 49.5848 67.6896C49.5848 68.2967 49.443 68.8243 49.1593 69.2725C48.8813 69.7208 48.487 70.0669 47.9764 70.3108C47.4714 70.5491 46.887 70.6683 46.2232 70.6683H43.2871V64.7109ZM46.1381 69.1023C46.5693 69.1023 46.9126 68.9804 47.1679 68.7364C47.4289 68.4867 47.5594 68.1378 47.5594 67.6896C47.5594 67.2414 47.4289 66.8953 47.1679 66.6513C46.9126 66.4017 46.5693 66.2769 46.1381 66.2769H45.2956V69.1023H46.1381Z" fill="#2C2C2C"/>
</svg>
