<svg width="93" height="107" viewBox="0 0 93 107" fill="none" xmlns="http://www.w3.org/2000/svg">
<path d="M0.726562 26.6443V79.6443L46.6258 106.145L92.5249 79.6443V26.6443L46.6258 0.144531L0.726562 26.6443Z" fill="#3797E4"/>
<path d="M4.26562 28.6879V77.6015L46.626 102.058L88.9869 77.6015V28.6879L46.626 4.23047L4.26562 28.6879Z" fill="white"/>
<path d="M7.67578 30.6557V75.6312L46.6256 98.1184L85.5755 75.6312V30.6557L46.6256 8.16797L7.67578 30.6557Z" fill="#2C2C2C"/>
<path d="M75.0955 56.6834H74.1384V59.3152H70.6094V48.8477H75.6488C76.6158 48.8477 77.4582 49.0072 78.1759 49.3262C78.8937 49.6452 79.447 50.1038 79.8358 50.7019C80.2246 51.3001 80.419 51.9979 80.419 52.7954C80.419 53.5431 80.2495 54.1961 79.9106 54.7544C79.5716 55.3126 79.0831 55.7563 78.4451 56.0852L80.6433 59.3152H76.875L75.0955 56.6834ZM76.86 52.7954C76.86 52.4066 76.7404 52.1076 76.5011 51.8982C76.2619 51.6789 75.903 51.5692 75.4245 51.5692H74.1384V54.0216H75.4245C75.903 54.0216 76.2619 53.917 76.5011 53.7076C76.7404 53.4883 76.86 53.1842 76.86 52.7954Z" fill="white"/>
<path d="M63.8922 59.5545C62.2871 59.5545 61.036 59.1208 60.1388 58.2535C59.2416 57.3862 58.793 56.17 58.793 54.6048V48.8477H62.322V54.5001C62.322 55.2678 62.4566 55.826 62.7258 56.175C63.0049 56.5239 63.4037 56.6983 63.9221 56.6983C64.4405 56.6983 64.8343 56.5239 65.1034 56.175C65.3826 55.826 65.5221 55.2678 65.5221 54.5001V48.8477H68.9914V54.6048C68.9914 56.17 68.5428 57.3862 67.6455 58.2535C66.7483 59.1208 65.4972 59.5545 63.8922 59.5545Z" fill="white"/>
<path d="M51.6958 59.5555C50.5693 59.5555 49.5574 59.3212 48.6602 58.8526C47.7629 58.3841 47.0601 57.7361 46.5517 56.9087C46.0433 56.0713 45.7891 55.1292 45.7891 54.0824C45.7891 53.0357 46.0433 52.0986 46.5517 51.2711C47.0601 50.4337 47.7629 49.7807 48.6602 49.3122C49.5574 48.8436 50.5693 48.6094 51.6958 48.6094C52.8223 48.6094 53.8341 48.8436 54.7314 49.3122C55.6286 49.7807 56.3314 50.4337 56.8398 51.2711C57.3483 52.0986 57.6025 53.0357 57.6025 54.0824C57.6025 55.1292 57.3483 56.0713 56.8398 56.9087C56.3314 57.7361 55.6286 58.3841 54.7314 58.8526C53.8341 59.3212 52.8223 59.5555 51.6958 59.5555ZM51.6958 56.6993C52.1344 56.6993 52.5282 56.5946 52.8771 56.3853C53.236 56.166 53.5201 55.8619 53.7295 55.4731C53.9388 55.0744 54.0435 54.6108 54.0435 54.0824C54.0435 53.5541 53.9388 53.0955 53.7295 52.7067C53.5201 52.3079 53.236 52.0039 52.8771 51.7945C52.5282 51.5752 52.1344 51.4655 51.6958 51.4655C51.2571 51.4655 50.8584 51.5752 50.4995 51.7945C50.1506 52.0039 49.8714 52.3079 49.6621 52.7067C49.4527 53.0955 49.348 53.5541 49.348 54.0824C49.348 54.6108 49.4527 55.0744 49.6621 55.4731C49.8714 55.8619 50.1506 56.166 50.4995 56.3853C50.8584 56.5946 51.2571 56.6993 51.6958 56.6993Z" fill="white"/>
<path d="M43.0147 53.8422C43.6328 54.0715 44.1113 54.4054 44.4502 54.8441C44.7892 55.2827 44.9587 55.8111 44.9587 56.4292C44.9587 57.3463 44.5798 58.0591 43.8222 58.5676C43.0645 59.066 41.9679 59.3152 40.5324 59.3152H34.6406V48.8477H40.2333C41.629 48.8477 42.6807 49.0969 43.3885 49.5953C44.1063 50.0938 44.4652 50.7567 44.4652 51.5842C44.4652 52.0727 44.3406 52.5113 44.0914 52.9001C43.8521 53.2889 43.4932 53.6029 43.0147 53.8422ZM38.1099 51.315V52.8702H39.7548C40.5224 52.8702 40.9062 52.611 40.9062 52.0926C40.9062 51.5742 40.5224 51.315 39.7548 51.315H38.1099ZM40.2333 56.8479C41.0109 56.8479 41.3997 56.5737 41.3997 56.0254C41.3997 55.4771 41.0109 55.203 40.2333 55.203H38.1099V56.8479H40.2333Z" fill="white"/>
<path d="M29.7284 57.4909H25.7507L25.0479 59.3152H21.459L26.0348 48.8477H29.5041L34.0799 59.3152H30.4312L29.7284 57.4909ZM28.7564 54.9488L27.7395 52.3169L26.7227 54.9488H28.7564Z" fill="white"/>
<path d="M13.2188 48.8477H16.7478V56.5787H21.4732V59.3152H13.2188V48.8477Z" fill="white"/>
<path d="M80.0356 63.5352H58.8301V64.9121H80.0356V63.5352Z" fill="#3797E4"/>
<path d="M34.4127 63.5352H12.8398V64.9121H34.4127V63.5352Z" fill="#3797E4"/>
<path d="M55.1561 66.7014V69.1252H52.904V66.6727L50.3848 62.4453H52.7609L54.1255 64.7546L55.4997 62.4453H57.6754L55.1561 66.7014Z" fill="white"/>
<path d="M48.4802 67.961H45.9419L45.4934 69.1252H43.2031L46.1232 62.4453H48.3371L51.2572 69.1252H48.9287L48.4802 67.961ZM47.86 66.3387L47.2111 64.6592L46.5622 66.3387H47.86Z" fill="white"/>
<path d="M36.1367 62.4453H39.429C40.1733 62.4453 40.8285 62.5821 41.3947 62.8556C41.9673 63.1228 42.4095 63.5077 42.7212 64.0103C43.0393 64.5129 43.1983 65.1045 43.1983 65.7853C43.1983 66.466 43.0393 67.0576 42.7212 67.5602C42.4095 68.0628 41.9673 68.4509 41.3947 68.7244C40.8285 68.9916 40.1733 69.1252 39.429 69.1252H36.1367V62.4453ZM39.3335 67.3693C39.817 67.3693 40.2019 67.2326 40.4882 66.959C40.7808 66.6791 40.9272 66.2878 40.9272 65.7853C40.9272 65.2827 40.7808 64.8946 40.4882 64.621C40.2019 64.3411 39.817 64.2012 39.3335 64.2012H38.3888V67.3693H39.3335Z" fill="white"/>
<path d="M34.3207 44.5312H12.8398V45.9082H34.3207V44.5312Z" fill="#3797E4"/>
<path d="M80.0366 44.5312H58.6934V45.9082H80.0366V44.5312Z" fill="#3797E4"/>
<path d="M50.6063 20.1811V23.1559C50.6063 23.3327 50.5121 23.4963 50.3585 23.585L46.9733 25.5392C46.8202 25.6279 46.6313 25.6279 46.4781 25.5392L43.093 23.585C42.9398 23.4963 42.8451 23.3327 42.8451 23.1559V20.1811C42.8451 19.9547 42.5664 19.8446 42.4111 20.0087C41.3629 21.1141 40.7339 22.62 40.784 24.2751C40.8584 26.7234 42.4761 28.8368 44.6825 29.6624V36.1871H48.7694V29.6702C51.0447 28.8363 52.6707 26.6551 52.6707 24.0912C52.6707 22.5082 52.0494 21.0723 51.0398 20.0076C50.8845 19.844 50.6063 19.9553 50.6063 20.1811Z" fill="white"/>
<path d="M75.2054 42.4349C75.2054 39.47 72.8017 37.0658 69.8362 37.0658C66.8708 37.0658 64.4671 39.4694 64.4671 42.4349C64.4671 42.4393 64.4677 42.4437 64.4677 42.4475H60.4375C60.4375 42.095 60.4568 41.7425 60.4964 41.3911C60.5262 41.1267 60.8341 40.9279 61.1007 40.9279C61.9621 40.9279 62.7266 40.4228 63.0472 39.6402C63.3743 38.8388 63.1634 37.9046 62.5217 37.3158C62.3196 37.1313 62.2953 36.8218 62.4644 36.6069C62.9056 36.0473 63.4063 35.5417 63.9532 35.1033C64.1669 34.9314 64.4814 34.9551 64.6676 35.1611C65.2283 35.7813 66.2346 36.0121 67.0123 35.6877C67.8214 35.3473 68.3315 34.5271 68.2819 33.647C68.2654 33.3705 68.4675 33.1303 68.7429 33.0978C69.4452 33.0163 70.1535 33.0141 70.8579 33.0923C71.1295 33.1226 71.3322 33.3573 71.3234 33.6305C71.2925 34.5024 71.8092 35.3076 72.61 35.6359C73.3784 35.9493 74.3775 35.7207 74.9371 35.106C75.1216 34.9033 75.4312 34.8786 75.6465 35.0465C76.2094 35.4883 76.7217 35.9945 77.1667 36.5497C77.3402 36.7656 77.3143 37.0784 77.1106 37.264C76.4562 37.8567 76.2453 38.7985 76.5851 39.6093C76.9095 40.3821 77.7115 40.88 78.6302 40.88C78.9282 40.8706 79.1402 41.0706 79.1733 41.3416C79.2162 41.7073 79.2361 42.0774 79.235 42.4475H75.2054C75.2048 42.4437 75.2054 42.4393 75.2054 42.4349Z" fill="white"/>
<path d="M29.1214 42.4349C29.1214 39.47 26.7177 37.0658 23.7522 37.0658C20.7868 37.0658 18.3831 39.4694 18.3831 42.4349C18.3831 42.4393 18.3837 42.4437 18.3837 42.4475H14.3535C14.3535 42.095 14.3728 41.7425 14.4124 41.3911C14.4422 41.1267 14.7501 40.9279 15.0167 40.9279C15.8781 40.9279 16.6426 40.4228 16.9626 39.6402C17.2898 38.8388 17.0788 37.9046 16.4372 37.3158C16.235 37.1313 16.2108 36.8218 16.3799 36.6069C16.8211 36.0473 17.3217 35.5417 17.8687 35.1033C18.0829 34.9314 18.3969 34.9551 18.5831 35.1611C19.1432 35.7813 20.1501 36.0121 20.9272 35.6877C21.7363 35.3473 22.2464 34.5271 22.1968 33.647C22.1803 33.3705 22.3824 33.1303 22.6578 33.0978C23.3601 33.0163 24.0684 33.0141 24.7729 33.0923C25.0444 33.1226 25.2465 33.3573 25.2383 33.6305C25.2074 34.5024 25.7241 35.3076 26.5249 35.6359C27.2933 35.9493 28.2924 35.7207 28.852 35.106C29.0365 34.9033 29.3461 34.8786 29.5614 35.0465C30.1244 35.4883 30.6366 35.9945 31.0816 36.5497C31.2551 36.7656 31.2293 37.0784 31.0255 37.264C30.3711 37.8567 30.1602 38.7985 30.5 39.6093C30.8244 40.3821 31.6264 40.88 32.5451 40.88C32.8431 40.8706 33.0551 41.0706 33.0882 41.3416C33.1311 41.7073 33.151 42.0774 33.1499 42.4475H29.1203C29.1208 42.4437 29.1214 42.4393 29.1214 42.4349Z" fill="white"/>
<path d="M57.9978 73.375H47.449H46.2962H35.7474L31.5195 78.0303L35.7474 82.4719H46.2962H47.449H57.9978L62.2262 78.0303L57.9978 73.375Z" fill="#3797E4"/>
<path d="M46.7133 85.4531L47.5428 88.006H50.2273L48.0556 89.5841L48.885 92.137L46.7133 90.559L44.5415 92.137L45.371 89.5841L43.1992 88.006H45.8838L46.7133 85.4531Z" fill="#3797E4"/>
</svg>
