<svg width="93" height="107" viewBox="0 0 93 107" fill="none" xmlns="http://www.w3.org/2000/svg">
<path d="M0.556641 27.3044V80.3044L46.4558 106.805L92.355 80.3044V27.3044L46.4558 0.804688L0.556641 27.3044Z" fill="#3797E4"/>
<path d="M4.0957 29.348V78.2617L46.4561 102.719L88.8169 78.2617V29.348L46.4561 4.89062L4.0957 29.348Z" fill="white"/>
<path d="M7.50586 31.3159V76.2914L46.4557 98.7786L85.4055 76.2914V31.3159L46.4557 8.82812L7.50586 31.3159Z" fill="#2C2C2C"/>
<path d="M74.9295 57.3435H73.9724V59.9754H70.4434V49.5078H75.4827C76.4498 49.5078 77.2921 49.6673 78.0099 49.9863C78.7277 50.3053 79.281 50.7639 79.6698 51.3621C80.0586 51.9602 80.253 52.6581 80.253 53.4556C80.253 54.2033 80.0835 54.8562 79.7446 55.4145C79.4056 55.9728 78.9171 56.4164 78.2791 56.7454L80.4773 59.9754H76.709L74.9295 57.3435ZM76.694 53.4556C76.694 53.0668 76.5744 52.7677 76.3351 52.5584C76.0959 52.339 75.737 52.2294 75.2584 52.2294H73.9724V54.6818H75.2584C75.737 54.6818 76.0959 54.5771 76.3351 54.3678C76.5744 54.1484 76.694 53.8444 76.694 53.4556Z" fill="white"/>
<path d="M63.7262 60.2147C62.1211 60.2147 60.87 59.781 59.9728 58.9137C59.0756 58.0464 58.627 56.8301 58.627 55.265V49.5078H62.156V55.1603C62.156 55.9279 62.2906 56.4862 62.5598 56.8351C62.8389 57.184 63.2377 57.3585 63.7561 57.3585C64.2745 57.3585 64.6682 57.184 64.9374 56.8351C65.2165 56.4862 65.3561 55.9279 65.3561 55.1603V49.5078H68.8254V55.265C68.8254 56.8301 68.3768 58.0464 67.4795 58.9137C66.5823 59.781 65.3312 60.2147 63.7262 60.2147Z" fill="white"/>
<path d="M51.5298 60.2156C50.4032 60.2156 49.3914 59.9814 48.4942 59.5128C47.5969 59.0443 46.8941 58.3963 46.3857 57.5688C45.8773 56.7314 45.623 55.7893 45.623 54.7426C45.623 53.6958 45.8773 52.7587 46.3857 51.9313C46.8941 51.0939 47.5969 50.4409 48.4942 49.9724C49.3914 49.5038 50.4032 49.2695 51.5298 49.2695C52.6563 49.2695 53.6681 49.5038 54.5653 49.9724C55.4626 50.4409 56.1654 51.0939 56.6738 51.9313C57.1822 52.7587 57.4365 53.6958 57.4365 54.7426C57.4365 55.7893 57.1822 56.7314 56.6738 57.5688C56.1654 58.3963 55.4626 59.0443 54.5653 59.5128C53.6681 59.9814 52.6563 60.2156 51.5298 60.2156ZM51.5298 57.3595C51.9684 57.3595 52.3622 57.2548 52.7111 57.0454C53.07 56.8261 53.3541 56.5221 53.5635 56.1333C53.7728 55.7345 53.8775 55.2709 53.8775 54.7426C53.8775 54.2142 53.7728 53.7556 53.5635 53.3668C53.3541 52.9681 53.07 52.664 52.7111 52.4547C52.3622 52.2353 51.9684 52.1257 51.5298 52.1257C51.0911 52.1257 50.6923 52.2353 50.3335 52.4547C49.9845 52.664 49.7054 52.9681 49.4961 53.3668C49.2867 53.7556 49.182 54.2142 49.182 54.7426C49.182 55.2709 49.2867 55.7345 49.4961 56.1333C49.7054 56.5221 49.9845 56.8261 50.3335 57.0454C50.6923 57.2548 51.0911 57.3595 51.5298 57.3595Z" fill="white"/>
<path d="M42.8487 54.5023C43.4668 54.7316 43.9453 55.0656 44.2842 55.5042C44.6232 55.9429 44.7927 56.4712 44.7927 57.0893C44.7927 58.0065 44.4138 58.7193 43.6562 59.2277C42.8985 59.7262 41.8019 59.9754 40.3664 59.9754H34.4746V49.5078H40.0673C41.463 49.5078 42.5147 49.757 43.2225 50.2555C43.9403 50.754 44.2992 51.4169 44.2992 52.2443C44.2992 52.7328 44.1746 53.1715 43.9253 53.5603C43.6861 53.9491 43.3272 54.2631 42.8487 54.5023ZM37.9439 51.9752V53.5304H39.5888C40.3564 53.5304 40.7402 53.2712 40.7402 52.7528C40.7402 52.2344 40.3564 51.9752 39.5888 51.9752H37.9439ZM40.0673 57.508C40.8449 57.508 41.2337 57.2339 41.2337 56.6856C41.2337 56.1373 40.8449 55.8631 40.0673 55.8631H37.9439V57.508H40.0673Z" fill="white"/>
<path d="M29.5624 58.151H25.5847L24.8819 59.9754H21.293L25.8688 49.5078H29.3381L33.9139 59.9754H30.2652L29.5624 58.151ZM28.5904 55.6089L27.5735 52.9771L26.5567 55.6089H28.5904Z" fill="white"/>
<path d="M13.0527 49.5078H16.5818V57.2389H21.3072V59.9754H13.0527V49.5078Z" fill="white"/>
<path d="M79.8696 64.1953H58.6641V65.5723H79.8696V64.1953Z" fill="#3797E4"/>
<path d="M34.2467 64.1953H12.6738V65.5723H34.2467V64.1953Z" fill="#3797E4"/>
<path d="M54.9901 67.3615V69.7854H52.738V67.3329L50.2188 63.1055H52.5949L53.9595 65.4148L55.3336 63.1055H57.5094L54.9901 67.3615Z" fill="white"/>
<path d="M48.3142 68.6211H45.7759L45.3274 69.7854H43.0371L45.9572 63.1055H48.1711L51.0911 69.7854H48.7627L48.3142 68.6211ZM47.6939 66.9989L47.045 65.3194L46.3961 66.9989H47.6939Z" fill="white"/>
<path d="M35.9707 63.1055H39.2629C40.0073 63.1055 40.6625 63.2422 41.2287 63.5158C41.8013 63.783 42.2434 64.1679 42.5552 64.6705C42.8733 65.1731 43.0323 65.7647 43.0323 66.4454C43.0323 67.1261 42.8733 67.7178 42.5552 68.2204C42.2434 68.7229 41.8013 69.111 41.2287 69.3846C40.6625 69.6518 40.0073 69.7854 39.2629 69.7854H35.9707V63.1055ZM39.1675 68.0295C39.651 68.0295 40.0359 67.8927 40.3222 67.6192C40.6148 67.3392 40.7611 66.948 40.7611 66.4454C40.7611 65.9428 40.6148 65.5548 40.3222 65.2812C40.0359 65.0013 39.651 64.8613 39.1675 64.8613H38.2228V68.0295H39.1675Z" fill="white"/>
<path d="M34.1547 45.1914H12.6738V46.5684H34.1547V45.1914Z" fill="#3797E4"/>
<path d="M79.8705 45.1914H58.5273V46.5684H79.8705V45.1914Z" fill="#3797E4"/>
<path d="M50.4403 20.8413V23.8161C50.4403 23.9929 50.3461 24.1565 50.1924 24.2452L46.8073 26.1994C46.6542 26.288 46.4652 26.288 46.3121 26.1994L42.9269 24.2452C42.7738 24.1565 42.6791 23.9929 42.6791 23.8161V20.8413C42.6791 20.6149 42.4004 20.5047 42.2451 20.6689C41.1969 21.7743 40.5679 23.2802 40.618 24.9353C40.6924 27.3836 42.3101 29.497 44.5165 30.3226V36.8473H48.6034V30.3303C50.8787 29.4964 52.5047 27.3153 52.5047 24.7513C52.5047 23.1684 51.8834 21.7324 50.8738 20.6678C50.7184 20.5042 50.4403 20.6154 50.4403 20.8413Z" fill="white"/>
<path d="M75.0393 43.095C75.0393 40.1301 72.6357 37.7259 69.6702 37.7259C66.7048 37.7259 64.3011 40.1296 64.3011 43.095C64.3011 43.0994 64.3016 43.1038 64.3016 43.1077H60.2715C60.2715 42.7552 60.2908 42.4027 60.3304 42.0513C60.3602 41.7869 60.6681 41.5881 60.9346 41.5881C61.7961 41.5881 62.5606 41.083 62.8811 40.3003C63.2083 39.4989 62.9974 38.5648 62.3557 37.976C62.1536 37.7915 62.1293 37.4819 62.2984 37.2671C62.7396 36.7075 63.2403 36.2019 63.7872 35.7634C64.0009 35.5916 64.3154 35.6153 64.5016 35.8213C65.0623 36.4415 66.0686 36.6722 66.8463 36.3478C67.6554 36.0074 68.1654 35.1873 68.1159 34.3071C68.0993 34.0306 68.3015 33.7905 68.5769 33.758C69.2791 33.6765 69.9875 33.6743 70.6919 33.7525C70.9635 33.7828 71.1662 34.0174 71.1574 34.2906C71.1265 35.1625 71.6431 35.9678 72.444 36.2961C73.2124 36.6095 74.2115 36.3809 74.7711 35.7662C74.9556 35.5635 75.2652 35.5387 75.4805 35.7067C76.0434 36.1484 76.5557 36.6546 77.0007 37.2098C77.1742 37.4257 77.1483 37.7386 76.9445 37.9242C76.2902 38.5168 76.0792 39.4587 76.4191 40.2695C76.7435 41.0422 77.5455 41.5401 78.4642 41.5401C78.7622 41.5308 78.9742 41.7307 79.0073 42.0017C79.0502 42.3674 79.07 42.7376 79.0689 43.1077H75.0393C75.0388 43.1038 75.0393 43.0994 75.0393 43.095Z" fill="white"/>
<path d="M28.9554 43.095C28.9554 40.1301 26.5517 37.7259 23.5862 37.7259C20.6208 37.7259 18.2171 40.1296 18.2171 43.095C18.2171 43.0994 18.2177 43.1038 18.2177 43.1077H14.1875C14.1875 42.7552 14.2068 42.4027 14.2464 42.0513C14.2762 41.7869 14.5841 41.5881 14.8507 41.5881C15.7121 41.5881 16.4766 41.083 16.7966 40.3003C17.1238 39.4989 16.9128 38.5648 16.2712 37.976C16.069 37.7915 16.0448 37.4819 16.2139 37.2671C16.6551 36.7075 17.1557 36.2019 17.7027 35.7634C17.9169 35.5916 18.2309 35.6153 18.417 35.8213C18.9772 36.4415 19.984 36.6722 20.7612 36.3478C21.5703 36.0074 22.0804 35.1873 22.0308 34.3071C22.0143 34.0306 22.2164 33.7905 22.4918 33.758C23.1941 33.6765 23.9024 33.6743 24.6068 33.7525C24.8784 33.7828 25.0805 34.0174 25.0723 34.2906C25.0414 35.1625 25.5581 35.9678 26.3589 36.2961C27.1273 36.6095 28.1264 36.3809 28.686 35.7662C28.8705 35.5635 29.1801 35.5387 29.3954 35.7067C29.9583 36.1484 30.4706 36.6546 30.9156 37.2098C31.0891 37.4257 31.0632 37.7386 30.8594 37.9242C30.2051 38.5168 29.9941 39.4587 30.334 40.2695C30.6584 41.0422 31.4604 41.5401 32.3791 41.5401C32.6771 41.5308 32.8891 41.7307 32.9222 42.0017C32.9651 42.3674 32.9849 42.7376 32.9838 43.1077H28.9542C28.9548 43.1038 28.9554 43.0994 28.9554 43.095Z" fill="white"/>
<path d="M57.8318 74.0352H47.283H46.1302H35.5814L31.3535 78.6905L35.5814 83.132H46.1302H47.283H57.8318L62.0602 78.6905L57.8318 74.0352Z" fill="#3797E4"/>
<path d="M46.5473 86.1094L47.3768 88.6623H50.0613L47.8895 90.2403L48.719 92.7932L46.5473 91.2152L44.3755 92.7932L45.205 90.2403L43.0332 88.6623H45.7178L46.5473 86.1094Z" fill="#3797E4"/>
</svg>
