<svg width="107" height="108" viewBox="0 0 107 108" fill="none" xmlns="http://www.w3.org/2000/svg">
<path d="M53.5438 0.566406L58.6925 4.8174L64.6128 1.73036L68.7655 6.95852L75.198 5.16943L78.1731 11.1471L84.8372 10.7343L86.5042 17.2002L93.1081 18.1819L93.3949 24.8528L99.6501 27.1864L98.5435 33.771L104.178 37.3543L101.726 43.5647L106.491 48.2409L102.802 53.8064L106.491 59.3712L101.726 64.0475L104.178 70.2579L98.5435 73.8417L99.6501 80.4258L93.3949 82.7599L93.1081 89.4303L86.5042 90.4125L84.8372 96.8779L78.1731 96.4651L75.198 102.443L68.7655 100.654L64.6128 105.882L58.6925 102.795L53.5438 107.046L48.3946 102.795L42.4743 105.882L38.3221 100.654L31.8891 102.443L28.9145 96.4651L22.2504 96.8779L20.5834 90.4125L13.9789 89.4303L13.6928 82.7599L7.43693 80.4258L8.54354 73.8417L2.90999 70.2579L5.36168 64.0475L0.595703 59.3712L4.28516 53.8064L0.595703 48.2409L5.36168 43.5647L2.90999 37.3543L8.54354 33.771L7.43693 27.1864L13.6928 24.8528L13.9789 18.1819L20.5834 17.2002L22.2504 10.7343L28.9145 11.1471L31.8891 5.16943L38.3221 6.95852L42.4743 1.73036L48.3946 4.8174L53.5438 0.566406Z" fill="#3797E4"/>
<path d="M53.5424 99.3287C28.4418 99.3287 8.02148 78.9078 8.02148 53.8067C8.02148 28.7061 28.4418 8.28516 53.5424 8.28516C78.643 8.28516 99.0645 28.7061 99.0645 53.8067C99.0645 78.9072 78.643 99.3287 53.5424 99.3287Z" fill="white"/>
<path d="M53.5446 96.3666C77.0511 96.3666 96.1068 77.3109 96.1068 53.8044C96.1068 30.2979 77.0511 11.2422 53.5446 11.2422C30.0382 11.2422 10.9824 30.2979 10.9824 53.8044C10.9824 77.3109 30.0382 96.3666 53.5446 96.3666Z" fill="#2C2C2C"/>
<path d="M46.0666 82.2891V88.9633H45.2584V83.1364H45.2193L43.5898 84.2183V83.3971L45.2584 82.2891H46.0666Z" fill="white"/>
<path d="M50.332 82.2891V81.8711H53.2503V82.2891H52.0268V85.7622H51.5556V82.2891H50.332Z" fill="white"/>
<path d="M49.2619 82.8424C49.2391 82.6498 49.1467 82.5004 48.9845 82.394C48.8224 82.2876 48.6235 82.2344 48.3879 82.2344C48.2157 82.2344 48.065 82.2623 47.9358 82.318C47.8078 82.3737 47.7078 82.4504 47.6356 82.5479C47.5646 82.6454 47.5292 82.7562 47.5292 82.8804C47.5292 82.9842 47.5539 83.0735 47.6033 83.1483C47.6539 83.2217 47.7185 83.2832 47.7971 83.3326C47.8756 83.3807 47.9579 83.4206 48.0441 83.4522C48.1302 83.4826 48.2094 83.5073 48.2816 83.5263L48.6767 83.6327C48.7781 83.6593 48.8908 83.6961 49.0149 83.7429C49.1403 83.7898 49.26 83.8538 49.374 83.9348C49.4893 84.0146 49.5843 84.1172 49.659 84.2426C49.7337 84.368 49.7711 84.5219 49.7711 84.7043C49.7711 84.9146 49.716 85.1046 49.6058 85.2743C49.4969 85.444 49.3373 85.5789 49.127 85.679C48.918 85.779 48.6641 85.8291 48.3651 85.8291C48.0865 85.8291 47.8452 85.7841 47.6413 85.6942C47.4386 85.6042 47.279 85.4788 47.1625 85.318C47.0472 85.1571 46.982 84.9703 46.9668 84.7575H47.4532C47.4658 84.9044 47.5152 85.026 47.6014 85.1223C47.6888 85.2173 47.799 85.2882 47.932 85.3351C48.0662 85.3807 48.2106 85.4035 48.3651 85.4035C48.545 85.4035 48.7065 85.3743 48.8496 85.3161C48.9928 85.2566 49.1061 85.1742 49.1897 85.0691C49.2733 84.9627 49.3151 84.8386 49.3151 84.6967C49.3151 84.5675 49.279 84.4624 49.2068 84.3813C49.1346 84.3003 49.0396 84.2344 48.9218 84.1837C48.804 84.1331 48.6767 84.0887 48.5399 84.0507L48.0612 83.9139C47.7572 83.8265 47.5165 83.7018 47.3392 83.5396C47.1619 83.3775 47.0732 83.1654 47.0732 82.9032C47.0732 82.6853 47.1321 82.4953 47.2499 82.3332C47.3689 82.1698 47.5285 82.0431 47.7287 81.9532C47.9301 81.862 48.1549 81.8164 48.4031 81.8164C48.6539 81.8164 48.8769 81.8614 49.0719 81.9513C49.267 82.04 49.4215 82.1616 49.5355 82.3161C49.6508 82.4706 49.7116 82.646 49.7179 82.8424H49.2619Z" fill="white"/>
<path d="M67.0703 82.2891H67.9958L69.8469 85.4046H69.9251L71.7762 82.2891H72.7017L70.2901 86.2128V88.9633H69.4819V86.2128L67.0703 82.2891Z" fill="white"/>
<path d="M62.3961 88.9633H61.5488L63.9995 82.2891H64.8338L67.2845 88.9633H66.4372L64.4427 83.3449H64.3906L62.3961 88.9633ZM62.709 86.3562H66.1243V87.0731H62.709V86.3562Z" fill="white"/>
<path d="M53.959 82.2891H54.9236L57.1918 87.8292H57.27L59.5382 82.2891H60.5028V88.9633H59.7468V83.8924H59.6816L57.5959 88.9633H56.8659L54.7802 83.8924H54.715V88.9633H53.959V82.2891Z" fill="white"/>
<path d="M95.8379 43.4805H11.2506C10.4018 46.7651 9.94531 50.2008 9.94531 53.7398C9.94531 59.7815 11.2677 65.5213 13.6331 70.7171H93.4555C95.8203 65.5213 97.1433 59.7815 97.1433 53.7398C97.1433 50.2002 96.6862 46.7651 95.8379 43.4805Z" fill="white"/>
<path d="M11.2188 53.5969V58.5173L15.48 60.9775L19.7412 58.5173V53.5969L15.48 51.1367L11.2188 53.5969ZM17.3423 56.0577C17.3423 57.086 16.5088 57.92 15.48 57.92C14.4517 57.92 13.6182 57.0865 13.6182 56.0577C13.6182 55.0294 14.4517 54.1959 15.48 54.1959C16.5088 54.1954 17.3423 55.0289 17.3423 56.0577Z" fill="#3797E4"/>
<path d="M87.7285 53.5969V58.5173L91.9897 60.9775L96.2509 58.5173V53.5969L91.9897 51.1367L87.7285 53.5969ZM93.8521 56.0577C93.8521 57.086 93.0186 57.92 91.9897 57.92C90.9615 57.92 90.128 57.0865 90.128 56.0577C90.128 55.0294 90.9615 54.1959 91.9897 54.1959C93.0186 54.1954 93.8521 55.0289 93.8521 56.0577Z" fill="#3797E4"/>
<path d="M71.7064 64.1055H54.0779H53.4703H35.8418L39.3161 70.8553L35.8418 77.2957H53.4703H54.0779H71.7064L68.2322 70.8553L71.7064 64.1055Z" fill="#3797E4"/>
<path d="M62.5807 71.2467V73.7453H60.2591V71.2172L57.6621 66.8594H60.1115L61.5182 69.2399L62.9348 66.8594H65.1776L62.5807 71.2467Z" fill="#2C2C2C"/>
<path d="M55.6977 72.5452H53.0811L52.6187 73.7453H50.2578L53.268 66.8594H55.5502L58.5603 73.7453H56.1601L55.6977 72.5452ZM55.0583 70.8729L54.3894 69.1416L53.7205 70.8729H55.0583Z" fill="#2C2C2C"/>
<path d="M42.9746 66.8594H46.3684C47.1357 66.8594 47.8112 67.0004 48.3948 67.2824C48.9851 67.5578 49.4409 67.9546 49.7622 68.4727C50.0901 68.9907 50.2541 69.6006 50.2541 70.3024C50.2541 71.0041 50.0901 71.614 49.7622 72.1321C49.4409 72.6501 48.9851 73.0502 48.3948 73.3322C47.8112 73.6076 47.1357 73.7453 46.3684 73.7453H42.9746V66.8594ZM46.27 71.9353C46.7684 71.9353 47.1652 71.7943 47.4603 71.5123C47.762 71.2238 47.9128 70.8204 47.9128 70.3024C47.9128 69.7843 47.762 69.3842 47.4603 69.1022C47.1652 68.8137 46.7684 68.6694 46.27 68.6694H45.2962V71.9353H46.27Z" fill="#2C2C2C"/>
<path d="M79.4751 56.9707H78.6108V59.3474H75.4238V49.8945H79.9747C80.848 49.8945 81.6087 50.0386 82.2569 50.3267C82.9051 50.6148 83.4048 51.0289 83.7559 51.569C84.107 52.1092 84.2825 52.7394 84.2825 53.4596C84.2825 54.1348 84.1295 54.7245 83.8234 55.2287C83.5173 55.7328 83.0762 56.1334 82.5 56.4305L84.4851 59.3474H81.0821L79.4751 56.9707ZM81.0685 53.4596C81.0685 53.1085 80.9605 52.8384 80.7444 52.6494C80.5284 52.4513 80.2043 52.3523 79.7722 52.3523H78.6108V54.567H79.7722C80.2043 54.567 80.5284 54.4724 80.7444 54.2834C80.9605 54.0853 81.0685 53.8107 81.0685 53.4596Z" fill="#2C2C2C"/>
<path d="M69.3588 59.5635C67.9094 59.5635 66.7795 59.1719 65.9693 58.3886C65.159 57.6054 64.7539 56.507 64.7539 55.0936V49.8945H67.9409V54.9991C67.9409 55.6923 68.0624 56.1965 68.3055 56.5115C68.5576 56.8266 68.9177 56.9842 69.3858 56.9842C69.854 56.9842 70.2096 56.8266 70.4526 56.5115C70.7047 56.1965 70.8308 55.6923 70.8308 54.9991V49.8945H73.9637V55.0936C73.9637 56.507 73.5586 57.6054 72.7483 58.3886C71.9381 59.1719 70.8082 59.5635 69.3588 59.5635Z" fill="#2C2C2C"/>
<path d="M58.3439 59.5647C57.3266 59.5647 56.4128 59.3531 55.6026 58.93C54.7923 58.5069 54.1576 57.9217 53.6985 57.1745C53.2393 56.4182 53.0098 55.5675 53.0098 54.6222C53.0098 53.6769 53.2393 52.8306 53.6985 52.0834C54.1576 51.3272 54.7923 50.7375 55.6026 50.3144C56.4128 49.8913 57.3266 49.6797 58.3439 49.6797C59.3612 49.6797 60.275 49.8913 61.0852 50.3144C61.8955 50.7375 62.5302 51.3272 62.9893 52.0834C63.4484 52.8306 63.678 53.6769 63.678 54.6222C63.678 55.5675 63.4484 56.4182 62.9893 57.1745C62.5302 57.9217 61.8955 58.5069 61.0852 58.93C60.275 59.3531 59.3612 59.5647 58.3439 59.5647ZM58.3439 56.9854C58.74 56.9854 59.0956 56.8909 59.4107 56.7018C59.7348 56.5038 59.9914 56.2292 60.1805 55.8781C60.3695 55.518 60.464 55.0993 60.464 54.6222C60.464 54.145 60.3695 53.7309 60.1805 53.3798C59.9914 53.0197 59.7348 52.7451 59.4107 52.5561C59.0956 52.358 58.74 52.259 58.3439 52.259C57.9478 52.259 57.5877 52.358 57.2636 52.5561C56.9485 52.7451 56.6964 53.0197 56.5073 53.3798C56.3183 53.7309 56.2237 54.145 56.2237 54.6222C56.2237 55.0993 56.3183 55.518 56.5073 55.8781C56.6964 56.2292 56.9485 56.5038 57.2636 56.7018C57.5877 56.8909 57.9478 56.9854 58.3439 56.9854Z" fill="#2C2C2C"/>
<path d="M50.5057 54.4049C51.0638 54.612 51.496 54.9136 51.8021 55.3097C52.1081 55.7058 52.2612 56.1829 52.2612 56.7411C52.2612 57.5694 51.9191 58.2131 51.2349 58.6722C50.5507 59.1223 49.5604 59.3474 48.264 59.3474H42.9434V49.8945H47.9939C49.2543 49.8945 50.2041 50.1196 50.8433 50.5697C51.4915 51.0199 51.8156 51.6186 51.8156 52.3658C51.8156 52.8069 51.703 53.203 51.478 53.5541C51.2619 53.9053 50.9378 54.1888 50.5057 54.4049ZM46.0763 52.1227V53.5271H47.5618C48.255 53.5271 48.6016 53.2931 48.6016 52.8249C48.6016 52.3568 48.255 52.1227 47.5618 52.1227H46.0763ZM47.9939 57.1192C48.6961 57.1192 49.0472 56.8717 49.0472 56.3765C49.0472 55.8814 48.6961 55.6338 47.9939 55.6338H46.0763V57.1192H47.9939Z" fill="#2C2C2C"/>
<path d="M38.5049 57.6999H34.9128L34.2781 59.3474H31.0371L35.1694 49.8945H38.3023L42.4346 59.3474H39.1396L38.5049 57.6999ZM37.6271 55.4042L36.7088 53.0275L35.7906 55.4042H37.6271Z" fill="#2C2C2C"/>
<path d="M23.5977 49.8945H26.7846V56.8762H31.0519V59.3474H23.5977V49.8945Z" fill="#2C2C2C"/>
<path d="M79.4751 56.9707H78.6108V59.3474H75.4238V49.8945H79.9747C80.848 49.8945 81.6087 50.0386 82.2569 50.3267C82.9051 50.6148 83.4048 51.0289 83.7559 51.569C84.107 52.1092 84.2825 52.7394 84.2825 53.4596C84.2825 54.1348 84.1295 54.7245 83.8234 55.2287C83.5173 55.7328 83.0762 56.1334 82.5 56.4305L84.4851 59.3474H81.0821L79.4751 56.9707ZM81.0685 53.4596C81.0685 53.1085 80.9605 52.8384 80.7444 52.6494C80.5284 52.4513 80.2043 52.3523 79.7722 52.3523H78.6108V54.567H79.7722C80.2043 54.567 80.5284 54.4724 80.7444 54.2834C80.9605 54.0853 81.0685 53.8107 81.0685 53.4596Z" fill="#2C2C2C"/>
<path d="M69.3588 59.5635C67.9094 59.5635 66.7795 59.1719 65.9693 58.3886C65.159 57.6054 64.7539 56.507 64.7539 55.0936V49.8945H67.9409V54.9991C67.9409 55.6923 68.0624 56.1965 68.3055 56.5115C68.5576 56.8266 68.9177 56.9842 69.3858 56.9842C69.854 56.9842 70.2096 56.8266 70.4526 56.5115C70.7047 56.1965 70.8308 55.6923 70.8308 54.9991V49.8945H73.9637V55.0936C73.9637 56.507 73.5586 57.6054 72.7483 58.3886C71.9381 59.1719 70.8082 59.5635 69.3588 59.5635Z" fill="#2C2C2C"/>
<path d="M58.3439 59.5647C57.3266 59.5647 56.4128 59.3531 55.6026 58.93C54.7923 58.5069 54.1576 57.9217 53.6985 57.1745C53.2393 56.4182 53.0098 55.5675 53.0098 54.6222C53.0098 53.6769 53.2393 52.8306 53.6985 52.0834C54.1576 51.3272 54.7923 50.7375 55.6026 50.3144C56.4128 49.8913 57.3266 49.6797 58.3439 49.6797C59.3612 49.6797 60.275 49.8913 61.0852 50.3144C61.8955 50.7375 62.5302 51.3272 62.9893 52.0834C63.4484 52.8306 63.678 53.6769 63.678 54.6222C63.678 55.5675 63.4484 56.4182 62.9893 57.1745C62.5302 57.9217 61.8955 58.5069 61.0852 58.93C60.275 59.3531 59.3612 59.5647 58.3439 59.5647ZM58.3439 56.9854C58.74 56.9854 59.0956 56.8909 59.4107 56.7018C59.7348 56.5038 59.9914 56.2292 60.1805 55.8781C60.3695 55.518 60.464 55.0993 60.464 54.6222C60.464 54.145 60.3695 53.7309 60.1805 53.3798C59.9914 53.0197 59.7348 52.7451 59.4107 52.5561C59.0956 52.358 58.74 52.259 58.3439 52.259C57.9478 52.259 57.5877 52.358 57.2636 52.5561C56.9485 52.7451 56.6964 53.0197 56.5073 53.3798C56.3183 53.7309 56.2237 54.145 56.2237 54.6222C56.2237 55.0993 56.3183 55.518 56.5073 55.8781C56.6964 56.2292 56.9485 56.5038 57.2636 56.7018C57.5877 56.8909 57.9478 56.9854 58.3439 56.9854Z" fill="#2C2C2C"/>
<path d="M50.5057 54.4049C51.0638 54.612 51.496 54.9136 51.8021 55.3097C52.1081 55.7058 52.2612 56.1829 52.2612 56.7411C52.2612 57.5694 51.9191 58.2131 51.2349 58.6722C50.5507 59.1223 49.5604 59.3474 48.264 59.3474H42.9434V49.8945H47.9939C49.2543 49.8945 50.2041 50.1196 50.8433 50.5697C51.4915 51.0199 51.8156 51.6186 51.8156 52.3658C51.8156 52.8069 51.703 53.203 51.478 53.5541C51.2619 53.9053 50.9378 54.1888 50.5057 54.4049ZM46.0763 52.1227V53.5271H47.5618C48.255 53.5271 48.6016 53.2931 48.6016 52.8249C48.6016 52.3568 48.255 52.1227 47.5618 52.1227H46.0763ZM47.9939 57.1192C48.6961 57.1192 49.0472 56.8717 49.0472 56.3765C49.0472 55.8814 48.6961 55.6338 47.9939 55.6338H46.0763V57.1192H47.9939Z" fill="#2C2C2C"/>
<path d="M38.5049 57.6999H34.9128L34.2781 59.3474H31.0371L35.1694 49.8945H38.3023L42.4346 59.3474H39.1396L38.5049 57.6999ZM37.6271 55.4042L36.7088 53.0275L35.7906 55.4042H37.6271Z" fill="#2C2C2C"/>
<path d="M23.5977 49.8945H26.7846V56.8762H31.0519V59.3474H23.5977V49.8945Z" fill="#2C2C2C"/>
<path d="M66.5977 29.2656H67.7561L70.0729 33.1651H70.1708L72.4876 29.2656H73.646L70.6276 34.1767V37.6193H69.6161V34.1767L66.5977 29.2656Z" fill="white"/>
<path d="M60.0234 37.6193V29.2656H62.8461C63.5014 29.2656 64.0371 29.3839 64.4532 29.6205C64.8719 29.8544 65.1819 30.1711 65.3832 30.5709C65.5844 30.9706 65.685 31.4166 65.685 31.9088C65.685 32.401 65.5844 32.8483 65.3832 33.2507C65.1846 33.6532 64.8774 33.9741 64.4613 34.2134C64.0453 34.4499 63.5123 34.5682 62.8624 34.5682H60.8392V33.6709H62.8297C63.2784 33.6709 63.6387 33.5934 63.9107 33.4384C64.1826 33.2834 64.3797 33.074 64.5021 32.8102C64.6272 32.5437 64.6897 32.2432 64.6897 31.9088C64.6897 31.5743 64.6272 31.2752 64.5021 31.0114C64.3797 30.7476 64.1812 30.541 63.9066 30.3914C63.6319 30.2391 63.2675 30.163 62.8134 30.163H61.035V37.6193H60.0234Z" fill="white"/>
<path d="M52.7344 37.6193V29.2656H55.557C56.2123 29.2656 56.748 29.3839 57.1641 29.6205C57.5829 29.8544 57.8929 30.1711 58.0941 30.5709C58.2953 30.9706 58.3959 31.4166 58.3959 31.9088C58.3959 32.401 58.2953 32.8483 58.0941 33.2507C57.8956 33.6532 57.5883 33.9741 57.1723 34.2134C56.7562 34.4499 56.2232 34.5682 55.5733 34.5682H53.5502V33.6709H55.5407C55.9894 33.6709 56.3497 33.5934 56.6216 33.4384C56.8935 33.2834 57.0907 33.074 57.213 32.8102C57.3381 32.5437 57.4007 32.2432 57.4007 31.9088C57.4007 31.5743 57.3381 31.2752 57.213 31.0114C57.0907 30.7476 56.8922 30.541 56.6175 30.3914C56.3429 30.2391 55.9785 30.163 55.5244 30.163H53.746V37.6193H52.7344Z" fill="white"/>
<path d="M45.3144 37.6193H44.2539L47.3213 29.2656H48.3655L51.4328 37.6193H50.3723L47.876 30.5872H47.8107L45.3144 37.6193ZM45.706 34.3561H49.9807V35.2535H45.706V34.3561Z" fill="white"/>
<path d="M36.4688 37.6193V29.2656H37.4803V32.9856H41.9345V29.2656H42.9461V37.6193H41.9345V33.883H37.4803V37.6193H36.4688Z" fill="white"/>
<path d="M31.4932 35.7024C31.5795 35.7086 31.6692 35.7143 31.7606 35.7143L34.3588 35.733V32.4172L31.7589 32.4405C31.6703 32.4416 31.5812 32.4473 31.4949 32.4552C30.7783 30.8711 29.1857 29.7656 27.3364 29.7656C25.9879 29.7656 24.7144 30.3578 23.8446 31.3935C23.7458 31.5087 23.7248 31.6734 23.7889 31.8125C23.8531 31.951 23.9939 32.0396 24.1466 32.0396H27.2808L28.468 34.0274L27.2808 36.114H24.1466C23.9933 36.1152 23.8542 36.2032 23.7889 36.3411C23.7236 36.4808 23.7463 36.6443 23.8451 36.7619C24.7144 37.7952 25.9874 38.3886 27.3359 38.3886C29.1823 38.3891 30.7761 37.2854 31.4932 35.7024Z" fill="white"/>
<path d="M75.8715 35.7024C75.7852 35.7086 75.6954 35.7143 75.604 35.7143L73.0059 35.733V32.4172L75.6057 32.4405C75.6943 32.4416 75.7835 32.4473 75.8703 32.4552C76.5869 30.8711 78.1795 29.7656 80.0288 29.7656C81.3773 29.7656 82.6508 30.3578 83.5206 31.3935C83.6194 31.5087 83.6404 31.6734 83.5763 31.8125C83.5121 31.951 83.3713 32.0396 83.2186 32.0396H80.0844L78.8972 34.0274L80.0844 36.114H83.2186C83.3719 36.1152 83.511 36.2032 83.5763 36.3411C83.6416 36.4808 83.6189 36.6443 83.5201 36.7619C82.6502 37.7952 81.3778 38.3886 80.0293 38.3886C78.1823 38.3891 76.5886 37.2854 75.8715 35.7024Z" fill="white"/>
</svg>
