<svg width="107" height="108" viewBox="0 0 107 108" fill="none" xmlns="http://www.w3.org/2000/svg">
<path d="M53.7137 0.90625L58.8624 5.15725L64.7827 2.07021L68.9355 7.29836L75.3679 5.50927L78.3431 11.4869L85.0071 11.0741L86.6742 17.54L93.2781 18.5217L93.5648 25.1926L99.8201 27.5262L98.7134 34.1108L104.348 37.6941L101.896 43.9045L106.661 48.5808L102.972 54.1462L106.661 59.7111L101.896 64.3873L104.348 70.5977L98.7134 74.1816L99.8201 80.7656L93.5648 83.0998L93.2781 89.7701L86.6742 90.7524L85.0071 97.2177L78.3431 96.8049L75.3679 102.783L68.9355 100.993L64.7827 106.222L58.8624 103.135L53.7137 107.386L48.5645 103.135L42.6442 106.222L38.492 100.993L32.059 102.783L29.0844 96.8049L22.4203 97.2177L20.7533 90.7524L14.1489 89.7701L13.8627 83.0998L7.60685 80.7656L8.71346 74.1816L3.07991 70.5977L5.5316 64.3873L0.765625 59.7111L4.45508 54.1462L0.765625 48.5808L5.5316 43.9045L3.07991 37.6941L8.71346 34.1108L7.60685 27.5262L13.8627 25.1926L14.1489 18.5217L20.7533 17.54L22.4203 11.0741L29.0844 11.4869L32.059 5.50927L38.492 7.29836L42.6442 2.07021L48.5645 5.15725L53.7137 0.90625Z" fill="#3797E4"/>
<path d="M53.7123 99.6686C28.6118 99.6686 8.19141 79.2476 8.19141 54.1465C8.19141 29.0459 28.6118 8.625 53.7123 8.625C78.8129 8.625 99.2344 29.0459 99.2344 54.1465C99.2344 79.2471 78.8129 99.6686 53.7123 99.6686Z" fill="white"/>
<path d="M53.7146 96.7104C77.221 96.7104 96.2768 77.6546 96.2768 54.1481C96.2768 30.6417 77.221 11.5859 53.7146 11.5859C30.2081 11.5859 11.1523 30.6417 11.1523 54.1481C11.1523 77.6546 30.2081 96.7104 53.7146 96.7104Z" fill="#2C2C2C"/>
<path d="M46.2365 82.6289V89.3031H45.4283V83.4762H45.3892L43.7598 84.5582V83.7369L45.4283 82.6289H46.2365Z" fill="white"/>
<path d="M50.502 82.6289V82.2109H53.4202V82.6289H52.1967V86.102H51.7255V82.6289H50.502Z" fill="white"/>
<path d="M49.4318 83.1822C49.409 82.9897 49.3166 82.8402 49.1544 82.7338C48.9923 82.6274 48.7935 82.5742 48.5579 82.5742C48.3856 82.5742 48.2349 82.6021 48.1057 82.6578C47.9778 82.7136 47.8777 82.7902 47.8055 82.8877C47.7346 82.9853 47.6991 83.0961 47.6991 83.2202C47.6991 83.3241 47.7238 83.4134 47.7732 83.4881C47.8239 83.5616 47.8885 83.623 47.967 83.6724C48.0455 83.7205 48.1279 83.7604 48.214 83.7921C48.3001 83.8225 48.3793 83.8472 48.4515 83.8662L48.8467 83.9726C48.948 83.9992 49.0607 84.0359 49.1848 84.0828C49.3102 84.1296 49.4299 84.1936 49.5439 84.2747C49.6592 84.3545 49.7542 84.4571 49.8289 84.5825C49.9037 84.7079 49.941 84.8618 49.941 85.0441C49.941 85.2544 49.8859 85.4444 49.7757 85.6141C49.6668 85.7839 49.5072 85.9188 49.2969 86.0188C49.0879 86.1189 48.834 86.1689 48.5351 86.1689C48.2564 86.1689 48.0151 86.1239 47.8112 86.034C47.6085 85.9441 47.4489 85.8187 47.3324 85.6578C47.2171 85.497 47.1519 85.3101 47.1367 85.0973H47.6231C47.6358 85.2443 47.6852 85.3659 47.7713 85.4621C47.8587 85.5571 47.9689 85.6281 48.1019 85.6749C48.2361 85.7205 48.3805 85.7433 48.5351 85.7433C48.7149 85.7433 48.8764 85.7142 49.0196 85.6559C49.1627 85.5964 49.276 85.5141 49.3596 85.4089C49.4432 85.3025 49.485 85.1784 49.485 85.0365C49.485 84.9074 49.4489 84.8022 49.3767 84.7212C49.3045 84.6401 49.2095 84.5742 49.0917 84.5236C48.974 84.4729 48.8467 84.4286 48.7099 84.3906L48.2311 84.2538C47.9271 84.1664 47.6864 84.0416 47.5091 83.8795C47.3318 83.7174 47.2431 83.5052 47.2431 83.243C47.2431 83.0252 47.302 82.8352 47.4198 82.673C47.5389 82.5096 47.6985 82.383 47.8986 82.293C48.1 82.2018 48.3248 82.1562 48.5731 82.1562C48.8239 82.1562 49.0468 82.2012 49.2418 82.2911C49.4369 82.3798 49.5914 82.5014 49.7054 82.6559C49.8207 82.8105 49.8815 82.9859 49.8878 83.1822H49.4318Z" fill="white"/>
<path d="M67.2402 82.6289H68.1658L70.0168 85.7444H70.095L71.9461 82.6289H72.8716L70.46 86.5526V89.3031H69.6518V86.5526L67.2402 82.6289Z" fill="white"/>
<path d="M62.5661 89.3031H61.7188L64.1694 82.6289H65.0037L67.4544 89.3031H66.6071L64.6126 83.6848H64.5605L62.5661 89.3031ZM62.8789 86.696H66.2942V87.413H62.8789V86.696Z" fill="white"/>
<path d="M54.1289 82.6289H55.0935L57.3617 88.169H57.4399L59.7081 82.6289H60.6728V89.3031H59.9167V84.2323H59.8515L57.7658 89.3031H57.0358L54.9501 84.2323H54.885V89.3031H54.1289V82.6289Z" fill="white"/>
<path d="M96.0079 43.8203H11.4206C10.5717 47.1049 10.1152 50.5406 10.1152 54.0796C10.1152 60.1214 11.4376 65.8611 13.803 71.0569H93.6254C95.9903 65.8611 97.3132 60.1214 97.3132 54.0796C97.3132 50.54 96.8561 47.1049 96.0079 43.8203Z" fill="white"/>
<path d="M11.3887 53.9368V58.8572L15.6499 61.3174L19.9111 58.8572V53.9368L15.6499 51.4766L11.3887 53.9368ZM17.5122 56.3975C17.5122 57.4258 16.6787 58.2599 15.6499 58.2599C14.6216 58.2599 13.7881 57.4264 13.7881 56.3975C13.7881 55.3693 14.6216 54.5358 15.6499 54.5358C16.6787 54.5352 17.5122 55.3687 17.5122 56.3975Z" fill="#3797E4"/>
<path d="M87.8984 53.9368V58.8572L92.1596 61.3174L96.4209 58.8572V53.9368L92.1596 51.4766L87.8984 53.9368ZM94.022 56.3975C94.022 57.4258 93.1885 58.2599 92.1596 58.2599C91.1314 58.2599 90.2979 57.4264 90.2979 56.3975C90.2979 55.3693 91.1314 54.5358 92.1596 54.5358C93.1885 54.5352 94.022 55.3687 94.022 56.3975Z" fill="#3797E4"/>
<path d="M71.8763 64.4453H54.2478H53.6403H36.0117L39.486 71.1951L36.0117 77.6355H53.6403H54.2478H71.8763L68.4021 71.1951L71.8763 64.4453Z" fill="#3797E4"/>
<path d="M62.7506 71.5827V74.0813H60.429V71.5531L57.832 67.1953H60.2815L61.6882 69.5759L63.1047 67.1953H65.3476L62.7506 71.5827Z" fill="#2C2C2C"/>
<path d="M55.8676 72.8811H53.251L52.7886 74.0813H50.4277L53.4379 67.1953H55.7201L58.7302 74.0813H56.33L55.8676 72.8811ZM55.2282 71.2088L54.5593 69.4775L53.8904 71.2088H55.2282Z" fill="#2C2C2C"/>
<path d="M43.1445 67.1953H46.5383C47.3056 67.1953 47.9811 67.3363 48.5648 67.6183C49.155 67.8937 49.6108 68.2905 49.9321 68.8086C50.26 69.3267 50.424 69.9366 50.424 70.6383C50.424 71.34 50.26 71.9499 49.9321 72.468C49.6108 72.9861 49.155 73.3861 48.5648 73.6681C47.9811 73.9436 47.3056 74.0813 46.5383 74.0813H43.1445V67.1953ZM46.44 72.2712C46.9384 72.2712 47.3351 72.1302 47.6302 71.8483C47.9319 71.5597 48.0827 71.1564 48.0827 70.6383C48.0827 70.1202 47.9319 69.7202 47.6302 69.4382C47.3351 69.1496 46.9384 69.0053 46.44 69.0053H45.4661V72.2712H46.44Z" fill="#2C2C2C"/>
<path d="M79.645 57.3105H78.7807V59.6873H75.5938V50.2344H80.1446C81.0179 50.2344 81.7786 50.3784 82.4268 50.6665C83.075 50.9546 83.5747 51.3687 83.9258 51.9089C84.2769 52.449 84.4525 53.0792 84.4525 53.7995C84.4525 54.4747 84.2994 55.0643 83.9933 55.5685C83.6872 56.0727 83.2461 56.4733 82.6699 56.7704L84.655 59.6873H81.252L79.645 57.3105ZM81.2385 53.7995C81.2385 53.4484 81.1304 53.1783 80.9144 52.9892C80.6983 52.7912 80.3742 52.6921 79.9421 52.6921H78.7807V54.9068H79.9421C80.3742 54.9068 80.6983 54.8123 80.9144 54.6232C81.1304 54.4252 81.2385 54.1506 81.2385 53.7995Z" fill="#2C2C2C"/>
<path d="M69.5287 59.9033C68.0793 59.9033 66.9494 59.5117 66.1392 58.7285C65.329 57.9452 64.9238 56.8469 64.9238 55.4335V50.2344H68.1108V55.3389C68.1108 56.0321 68.2323 56.5363 68.4754 56.8514C68.7275 57.1665 69.0876 57.324 69.5557 57.324C70.0239 57.324 70.3795 57.1665 70.6226 56.8514C70.8746 56.5363 71.0007 56.0321 71.0007 55.3389V50.2344H74.1336V55.4335C74.1336 56.8469 73.7285 57.9452 72.9183 58.7285C72.108 59.5117 70.9782 59.9033 69.5287 59.9033Z" fill="#2C2C2C"/>
<path d="M58.5138 59.9045C57.4965 59.9045 56.5827 59.693 55.7725 59.2698C54.9622 58.8467 54.3275 58.2615 53.8684 57.5143C53.4093 56.7581 53.1797 55.9073 53.1797 54.962C53.1797 54.0167 53.4093 53.1705 53.8684 52.4233C54.3275 51.667 54.9622 51.0774 55.7725 50.6542C56.5827 50.2311 57.4965 50.0195 58.5138 50.0195C59.5311 50.0195 60.4449 50.2311 61.2551 50.6542C62.0654 51.0774 62.7001 51.667 63.1592 52.4233C63.6184 53.1705 63.8479 54.0167 63.8479 54.962C63.8479 55.9073 63.6184 56.7581 63.1592 57.5143C62.7001 58.2615 62.0654 58.8467 61.2551 59.2698C60.4449 59.693 59.5311 59.9045 58.5138 59.9045ZM58.5138 57.3253C58.9099 57.3253 59.2655 57.2307 59.5806 57.0417C59.9047 56.8436 60.1613 56.569 60.3504 56.2179C60.5394 55.8578 60.634 55.4392 60.634 54.962C60.634 54.4849 60.5394 54.0708 60.3504 53.7197C60.1613 53.3595 59.9047 53.085 59.5806 52.8959C59.2655 52.6978 58.9099 52.5988 58.5138 52.5988C58.1177 52.5988 57.7576 52.6978 57.4335 52.8959C57.1184 53.085 56.8663 53.3595 56.6773 53.7197C56.4882 54.0708 56.3937 54.4849 56.3937 54.962C56.3937 55.4392 56.4882 55.8578 56.6773 56.2179C56.8663 56.569 57.1184 56.8436 57.4335 57.0417C57.7576 57.2307 58.1177 57.3253 58.5138 57.3253Z" fill="#2C2C2C"/>
<path d="M50.6756 54.7447C51.2338 54.9518 51.6659 55.2534 51.972 55.6495C52.2781 56.0456 52.4311 56.5228 52.4311 57.081C52.4311 57.9092 52.089 58.5529 51.4048 59.012C50.7206 59.4622 49.7303 59.6873 48.4339 59.6873H43.1133V50.2344H48.1638C49.4242 50.2344 50.374 50.4594 51.0132 50.9096C51.6614 51.3597 51.9855 51.9584 51.9855 52.7056C51.9855 53.1468 51.8729 53.5429 51.6479 53.894C51.4318 54.2451 51.1077 54.5287 50.6756 54.7447ZM46.2462 52.4626V53.867H47.7317C48.4249 53.867 48.7715 53.6329 48.7715 53.1648C48.7715 52.6966 48.4249 52.4626 47.7317 52.4626H46.2462ZM48.1638 57.4591C48.866 57.4591 49.2171 57.2115 49.2171 56.7163C49.2171 56.2212 48.866 55.9736 48.1638 55.9736H46.2462V57.4591H48.1638Z" fill="#2C2C2C"/>
<path d="M38.6748 58.0398H35.0827L34.448 59.6873H31.207L35.3393 50.2344H38.4722L42.6045 59.6873H39.3095L38.6748 58.0398ZM37.797 55.7441L36.8788 53.3673L35.9605 55.7441H37.797Z" fill="#2C2C2C"/>
<path d="M23.7676 50.2344H26.9545V57.216H31.2218V59.6873H23.7676V50.2344Z" fill="#2C2C2C"/>
<path d="M79.645 57.3105H78.7807V59.6873H75.5938V50.2344H80.1446C81.0179 50.2344 81.7786 50.3784 82.4268 50.6665C83.075 50.9546 83.5747 51.3687 83.9258 51.9089C84.2769 52.449 84.4525 53.0792 84.4525 53.7995C84.4525 54.4747 84.2994 55.0643 83.9933 55.5685C83.6872 56.0727 83.2461 56.4733 82.6699 56.7704L84.655 59.6873H81.252L79.645 57.3105ZM81.2385 53.7995C81.2385 53.4484 81.1304 53.1783 80.9144 52.9892C80.6983 52.7912 80.3742 52.6921 79.9421 52.6921H78.7807V54.9068H79.9421C80.3742 54.9068 80.6983 54.8123 80.9144 54.6232C81.1304 54.4252 81.2385 54.1506 81.2385 53.7995Z" fill="#2C2C2C"/>
<path d="M69.5287 59.9033C68.0793 59.9033 66.9494 59.5117 66.1392 58.7285C65.329 57.9452 64.9238 56.8469 64.9238 55.4335V50.2344H68.1108V55.3389C68.1108 56.0321 68.2323 56.5363 68.4754 56.8514C68.7275 57.1665 69.0876 57.324 69.5557 57.324C70.0239 57.324 70.3795 57.1665 70.6226 56.8514C70.8746 56.5363 71.0007 56.0321 71.0007 55.3389V50.2344H74.1336V55.4335C74.1336 56.8469 73.7285 57.9452 72.9183 58.7285C72.108 59.5117 70.9782 59.9033 69.5287 59.9033Z" fill="#2C2C2C"/>
<path d="M58.5138 59.9045C57.4965 59.9045 56.5827 59.693 55.7725 59.2698C54.9622 58.8467 54.3275 58.2615 53.8684 57.5143C53.4093 56.7581 53.1797 55.9073 53.1797 54.962C53.1797 54.0167 53.4093 53.1705 53.8684 52.4233C54.3275 51.667 54.9622 51.0774 55.7725 50.6542C56.5827 50.2311 57.4965 50.0195 58.5138 50.0195C59.5311 50.0195 60.4449 50.2311 61.2551 50.6542C62.0654 51.0774 62.7001 51.667 63.1592 52.4233C63.6184 53.1705 63.8479 54.0167 63.8479 54.962C63.8479 55.9073 63.6184 56.7581 63.1592 57.5143C62.7001 58.2615 62.0654 58.8467 61.2551 59.2698C60.4449 59.693 59.5311 59.9045 58.5138 59.9045ZM58.5138 57.3253C58.9099 57.3253 59.2655 57.2307 59.5806 57.0417C59.9047 56.8436 60.1613 56.569 60.3504 56.2179C60.5394 55.8578 60.634 55.4392 60.634 54.962C60.634 54.4849 60.5394 54.0708 60.3504 53.7197C60.1613 53.3595 59.9047 53.085 59.5806 52.8959C59.2655 52.6978 58.9099 52.5988 58.5138 52.5988C58.1177 52.5988 57.7576 52.6978 57.4335 52.8959C57.1184 53.085 56.8663 53.3595 56.6773 53.7197C56.4882 54.0708 56.3937 54.4849 56.3937 54.962C56.3937 55.4392 56.4882 55.8578 56.6773 56.2179C56.8663 56.569 57.1184 56.8436 57.4335 57.0417C57.7576 57.2307 58.1177 57.3253 58.5138 57.3253Z" fill="#2C2C2C"/>
<path d="M50.6756 54.7447C51.2338 54.9518 51.6659 55.2534 51.972 55.6495C52.2781 56.0456 52.4311 56.5228 52.4311 57.081C52.4311 57.9092 52.089 58.5529 51.4048 59.012C50.7206 59.4622 49.7303 59.6873 48.4339 59.6873H43.1133V50.2344H48.1638C49.4242 50.2344 50.374 50.4594 51.0132 50.9096C51.6614 51.3597 51.9855 51.9584 51.9855 52.7056C51.9855 53.1468 51.8729 53.5429 51.6479 53.894C51.4318 54.2451 51.1077 54.5287 50.6756 54.7447ZM46.2462 52.4626V53.867H47.7317C48.4249 53.867 48.7715 53.6329 48.7715 53.1648C48.7715 52.6966 48.4249 52.4626 47.7317 52.4626H46.2462ZM48.1638 57.4591C48.866 57.4591 49.2171 57.2115 49.2171 56.7163C49.2171 56.2212 48.866 55.9736 48.1638 55.9736H46.2462V57.4591H48.1638Z" fill="#2C2C2C"/>
<path d="M38.6748 58.0398H35.0827L34.448 59.6873H31.207L35.3393 50.2344H38.4722L42.6045 59.6873H39.3095L38.6748 58.0398ZM37.797 55.7441L36.8788 53.3673L35.9605 55.7441H37.797Z" fill="#2C2C2C"/>
<path d="M23.7676 50.2344H26.9545V57.216H31.2218V59.6873H23.7676V50.2344Z" fill="#2C2C2C"/>
<path d="M66.7676 29.6055H67.926L70.2428 33.5049H70.3407L72.6576 29.6055H73.816L70.7976 34.5165V37.9591H69.786V34.5165L66.7676 29.6055Z" fill="white"/>
<path d="M60.1934 37.9591V29.6055H63.016C63.6713 29.6055 64.207 29.7238 64.6231 29.9603C65.0418 30.1942 65.3518 30.511 65.5531 30.9107C65.7543 31.3105 65.8549 31.7564 65.8549 32.2486C65.8549 32.7408 65.7543 33.1881 65.5531 33.5906C65.3546 33.993 65.0473 34.3139 64.6312 34.5532C64.2152 34.7898 63.6822 34.9081 63.0323 34.9081H61.0091V34.0107H62.9997C63.4483 34.0107 63.8087 33.9332 64.0806 33.7782C64.3525 33.6232 64.5497 33.4138 64.672 33.1501C64.7971 32.8836 64.8597 32.5831 64.8597 32.2486C64.8597 31.9141 64.7971 31.615 64.672 31.3513C64.5497 31.0875 64.3511 30.8808 64.0765 30.7313C63.8019 30.579 63.4375 30.5028 62.9833 30.5028H61.2049V37.9591H60.1934Z" fill="white"/>
<path d="M52.9043 37.9591V29.6055H55.7269C56.3823 29.6055 56.918 29.7238 57.334 29.9603C57.7528 30.1942 58.0628 30.511 58.264 30.9107C58.4652 31.3105 58.5659 31.7564 58.5659 32.2486C58.5659 32.7408 58.4652 33.1881 58.264 33.5906C58.0655 33.993 57.7582 34.3139 57.3422 34.5532C56.9261 34.7898 56.3931 34.9081 55.7432 34.9081H53.7201V34.0107H55.7106C56.1593 34.0107 56.5196 33.9332 56.7915 33.7782C57.0634 33.6232 57.2606 33.4138 57.383 33.1501C57.508 32.8836 57.5706 32.5831 57.5706 32.2486C57.5706 31.9141 57.508 31.615 57.383 31.3513C57.2606 31.0875 57.0621 30.8808 56.7874 30.7313C56.5128 30.579 56.1484 30.5028 55.6943 30.5028H53.9159V37.9591H52.9043Z" fill="white"/>
<path d="M45.4843 37.9591H44.4238L47.4912 29.6055H48.5354L51.6027 37.9591H50.5422L48.0459 30.927H47.9807L45.4843 37.9591ZM45.8759 34.696H50.1506V35.5933H45.8759V34.696Z" fill="white"/>
<path d="M36.6387 37.9591V29.6055H37.6502V33.3255H42.1044V29.6055H43.116V37.9591H42.1044V34.2228H37.6502V37.9591H36.6387Z" fill="white"/>
<path d="M31.6631 36.0422C31.7494 36.0485 31.8391 36.0541 31.9305 36.0541L34.5287 36.0729V32.757L31.9288 32.7803C31.8403 32.7814 31.7511 32.7871 31.6648 32.7951C30.9483 31.2109 29.3556 30.1055 27.5064 30.1055C26.1579 30.1055 24.8843 30.6977 24.0145 31.7333C23.9157 31.8486 23.8947 32.0132 23.9588 32.1523C24.023 32.2909 24.1638 32.3794 24.3165 32.3794H27.4507L28.638 34.3673L27.4507 36.4539H24.3165C24.1632 36.455 24.0241 36.543 23.9588 36.681C23.8935 36.8206 23.9163 36.9842 24.0151 37.1017C24.8843 38.1351 26.1573 38.7284 27.5058 38.7284C29.3522 38.729 30.946 37.6252 31.6631 36.0422Z" fill="white"/>
<path d="M76.0414 36.0422C75.9551 36.0485 75.8654 36.0541 75.774 36.0541L73.1758 36.0729V32.757L75.7757 32.7803C75.8642 32.7814 75.9534 32.7871 76.0402 32.7951C76.7568 31.2109 78.3494 30.1055 80.1987 30.1055C81.5472 30.1055 82.8207 30.6977 83.6906 31.7333C83.7894 31.8486 83.8104 32.0132 83.7462 32.1523C83.682 32.2909 83.5412 32.3794 83.3885 32.3794H80.2543L79.0671 34.3673L80.2543 36.4539H83.3885C83.5418 36.455 83.6809 36.543 83.7462 36.681C83.8115 36.8206 83.7888 36.9842 83.69 37.1017C82.8202 38.1351 81.5478 38.7284 80.1993 38.7284C78.3523 38.729 76.7585 37.6252 76.0414 36.0422Z" fill="white"/>
</svg>
