<svg width="106" height="106" viewBox="0 0 106 106" fill="none" xmlns="http://www.w3.org/2000/svg">
<path d="M52.998 0.304689L0.498047 52.8047L52.9981 105.305L105.498 52.8047L52.998 0.304689Z" fill="#3797E4"/>
<path d="M52.9991 6.06927L6.26367 52.8047L52.9991 99.5401L99.7345 52.8047L52.9991 6.06927Z" fill="white"/>
<path d="M52.998 12.5039L12.6973 52.8047L52.998 93.1054L93.2988 52.8047L52.998 12.5039Z" fill="#2C2C2C"/>
<path d="M90.5854 37.8906H15.4157L0.5 52.8063L15.4157 67.722H90.5854L105.501 52.8063L90.5854 37.8906Z" fill="#3797E4"/>
<path d="M74.9668 56.1768V45.875H78.4477C79.2525 45.875 79.9131 46.0125 80.4296 46.2875C80.946 46.5591 81.3283 46.933 81.5764 47.4092C81.8246 47.8854 81.9487 48.427 81.9487 49.0339C81.9487 49.6409 81.8246 50.1791 81.5764 50.6486C81.3283 51.1181 80.9477 51.487 80.4346 51.7553C79.9215 52.0202 79.2659 52.1526 78.4678 52.1526H75.6509V51.0259H78.4276C78.9775 51.0259 79.4202 50.9454 79.7555 50.7844C80.0942 50.6235 80.339 50.3954 80.4899 50.1003C80.6442 49.8019 80.7213 49.4464 80.7213 49.0339C80.7213 48.6215 80.6442 48.261 80.4899 47.9525C80.3357 47.6439 80.0892 47.4058 79.7505 47.2382C79.4118 47.0671 78.9641 46.9816 78.4074 46.9816H76.2143V56.1768H74.9668ZM79.8159 51.549L82.3511 56.1768H80.9024L78.4074 51.549H79.8159Z" fill="#2C2C2C"/>
<path d="M71.2273 45.875H72.4748V52.6959C72.4748 53.4001 72.3088 54.0289 71.9768 54.5822C71.6482 55.1322 71.1837 55.5665 70.5835 55.885C69.9832 56.2003 69.279 56.3579 68.4708 56.3579C67.6626 56.3579 66.9584 56.2003 66.3581 55.885C65.7579 55.5665 65.2917 55.1322 64.9598 54.5822C64.6311 54.0289 64.4668 53.4001 64.4668 52.6959V45.875H65.7143V52.5953C65.7143 53.0983 65.8249 53.546 66.0463 53.9384C66.2676 54.3274 66.5828 54.6342 66.9919 54.8589C67.4044 55.0802 67.8974 55.1909 68.4708 55.1909C69.0443 55.1909 69.5372 55.0802 69.9497 54.8589C70.3622 54.6342 70.6774 54.3274 70.8954 53.9384C71.1167 53.546 71.2273 53.0983 71.2273 52.5953V45.875Z" fill="#2C2C2C"/>
<path d="M62.3699 51.0261C62.3699 52.1126 62.1738 53.0516 61.7814 53.843C61.3891 54.6344 60.8508 55.2447 60.1667 55.674C59.4826 56.1032 58.7013 56.3178 57.8227 56.3178C56.9441 56.3178 56.1627 56.1032 55.4786 55.674C54.7945 55.2447 54.2563 54.6344 53.8639 53.843C53.4716 53.0516 53.2754 52.1126 53.2754 51.0261C53.2754 49.9396 53.4716 49.0006 53.8639 48.2092C54.2563 47.4178 54.7945 46.8075 55.4786 46.3782C56.1627 45.949 56.9441 45.7344 57.8227 45.7344C58.7013 45.7344 59.4826 45.949 60.1667 46.3782C60.8508 46.8075 61.3891 47.4178 61.7814 48.2092C62.1738 49.0006 62.3699 49.9396 62.3699 51.0261ZM61.1627 51.0261C61.1627 50.1341 61.0135 49.3812 60.715 48.7676C60.4199 48.1539 60.0192 47.6894 59.5128 47.3742C59.0098 47.059 58.4464 46.9014 57.8227 46.9014C57.1989 46.9014 56.6339 47.059 56.1275 47.3742C55.6245 47.6894 55.2237 48.1539 54.9253 48.7676C54.6302 49.3812 54.4826 50.1341 54.4826 51.0261C54.4826 51.9181 54.6302 52.671 54.9253 53.2847C55.2237 53.8983 55.6245 54.3628 56.1275 54.678C56.6339 54.9932 57.1989 55.1509 57.8227 55.1509C58.4464 55.1509 59.0098 54.9932 59.5128 54.678C60.0192 54.3628 60.4199 53.8983 60.715 53.2847C61.0135 52.671 61.1627 51.9181 61.1627 51.0261Z" fill="#2C2C2C"/>
<path d="M44.4648 56.1768V45.875H48.0664C48.7841 45.875 49.376 45.9991 49.8421 46.2472C50.3082 46.492 50.6553 46.8223 50.8833 47.2382C51.1114 47.6506 51.2254 48.1084 51.2254 48.6114C51.2254 49.0541 51.1466 49.4196 50.989 49.708C50.8347 49.9964 50.6302 50.2244 50.3753 50.3921C50.1238 50.5598 49.8505 50.6838 49.5554 50.7643V50.8649C49.8706 50.885 50.1875 50.9957 50.5061 51.1969C50.8247 51.3981 51.0913 51.6865 51.3059 52.0621C51.5205 52.4377 51.6278 52.8971 51.6278 53.4404C51.6278 53.9568 51.5104 54.4213 51.2757 54.8337C51.0409 55.2462 50.6704 55.5732 50.164 55.8146C49.6577 56.0561 48.9987 56.1768 48.1872 56.1768H44.4648ZM45.7123 55.0701H48.1872C49.0021 55.0701 49.5805 54.9125 49.9226 54.5973C50.268 54.2787 50.4407 53.8931 50.4407 53.4404C50.4407 53.0916 50.3518 52.7697 50.1741 52.4746C49.9964 52.1761 49.7432 51.938 49.4145 51.7603C49.0859 51.5792 48.6969 51.4887 48.2475 51.4887H45.7123V55.0701ZM45.7123 50.4022H48.0262C48.4018 50.4022 48.7405 50.3284 49.0423 50.1808C49.3475 50.0333 49.5889 49.8254 49.7666 49.5571C49.9477 49.2888 50.0383 48.9736 50.0383 48.6114C50.0383 48.1587 49.8807 47.7747 49.5654 47.4595C49.2502 47.1409 48.7505 46.9816 48.0664 46.9816H45.7123V50.4022Z" fill="#2C2C2C"/>
<path d="M35.3157 56.1768H34.0078L37.7905 45.875H39.0782L42.8609 56.1768H41.5531L38.4746 47.5048H38.3941L35.3157 56.1768ZM35.7986 52.1526H41.0702V53.2593H35.7986V52.1526Z" fill="#2C2C2C"/>
<path d="M26.2754 56.1768V45.875H27.5229V55.0701H32.3116V56.1768H26.2754Z" fill="#2C2C2C"/>
<path d="M17.9296 53.9202C18.0231 53.9272 18.12 53.9331 18.2184 53.9331L21.0286 53.953V50.3673L18.217 50.3921C18.121 50.3931 18.0245 50.3991 17.9311 50.4086C17.1564 48.6957 15.4337 47.5 13.4335 47.5C11.9752 47.5 10.5975 48.1404 9.65683 49.2605C9.54993 49.3853 9.52706 49.5633 9.59667 49.714C9.66628 49.8641 9.81792 49.9596 9.98348 49.9591H13.3733L14.6571 52.1089L13.3728 54.3657H9.98348C9.81742 54.3667 9.66727 54.4621 9.59667 54.6118C9.52607 54.7625 9.55043 54.94 9.65733 55.0667C10.5975 56.1844 11.9742 56.8258 13.4325 56.8258C15.4302 56.8263 17.1545 55.632 17.9296 53.9202Z" fill="#2C2C2C"/>
<path d="M87.3998 53.9202C87.3063 53.9272 87.2093 53.9331 87.1109 53.9331L84.3008 53.953V50.3673L87.1124 50.3921C87.2083 50.3931 87.3048 50.3991 87.3983 50.4086C88.1729 48.6957 89.8957 47.5 91.8959 47.5C93.3541 47.5 94.7318 48.1404 95.6725 49.2605C95.7794 49.3853 95.8023 49.5633 95.7327 49.714C95.6631 49.8641 95.5114 49.9596 95.3459 49.9591H91.956L90.6723 52.1089L91.9565 54.3657H95.3459C95.5119 54.3667 95.6621 54.4621 95.7327 54.6118C95.8028 54.7625 95.7789 54.94 95.672 55.0667C94.7318 56.1844 93.3551 56.8258 91.8969 56.8258C89.8991 56.8263 88.1749 55.632 87.3998 53.9202Z" fill="#2C2C2C"/>
<path d="M59.8535 27.6719H60.6057L62.1099 30.2037H62.1735L63.6778 27.6719H64.4299L62.4701 30.8605V33.0958H61.8133V30.8605L59.8535 27.6719Z" fill="white"/>
<path d="M55.5859 33.0958V27.6719H57.4186C57.8441 27.6719 58.1919 27.7487 58.4621 27.9023C58.734 28.0541 58.9353 28.2598 59.0659 28.5194C59.1966 28.7789 59.2619 29.0685 59.2619 29.388C59.2619 29.7076 59.1966 29.998 59.0659 30.2593C58.937 30.5207 58.7375 30.729 58.4674 30.8844C58.1972 31.038 57.8512 31.1148 57.4292 31.1148H56.1156V30.5321H57.408C57.6993 30.5321 57.9333 30.4818 58.1099 30.3812C58.2864 30.2805 58.4144 30.1446 58.4939 29.9733C58.5751 29.8003 58.6157 29.6052 58.6157 29.388C58.6157 29.1709 58.5751 28.9766 58.4939 28.8054C58.4144 28.6341 58.2855 28.4999 58.1072 28.4028C57.9289 28.304 57.6923 28.2545 57.3974 28.2545H56.2427V33.0958H55.5859Z" fill="white"/>
<path d="M50.8516 33.0958V27.6719H52.6842C53.1098 27.6719 53.4576 27.7487 53.7277 27.9023C53.9996 28.0541 54.2009 28.2598 54.3315 28.5194C54.4622 28.7789 54.5275 29.0685 54.5275 29.388C54.5275 29.7076 54.4622 29.998 54.3315 30.2593C54.2027 30.5207 54.0031 30.729 53.733 30.8844C53.4629 31.038 53.1168 31.1148 52.6948 31.1148H51.3812V30.5321H52.6737C52.965 30.5321 53.1989 30.4818 53.3755 30.3812C53.552 30.2805 53.68 30.1446 53.7595 29.9733C53.8407 29.8003 53.8813 29.6052 53.8813 29.388C53.8813 29.1709 53.8407 28.9766 53.7595 28.8054C53.68 28.6341 53.5512 28.4999 53.3728 28.4028C53.1945 28.304 52.9579 28.2545 52.6631 28.2545H51.5084V33.0958H50.8516Z" fill="white"/>
<path d="M46.0343 33.0958H45.3457L47.3373 27.6719H48.0153L50.0069 33.0958H49.3183L47.6975 28.53H47.6551L46.0343 33.0958ZM46.2885 30.9771H49.064V31.5597H46.2885V30.9771Z" fill="white"/>
<path d="M40.291 33.0958V27.6719H40.9478V30.0872H43.8399V27.6719H44.4967V33.0958H43.8399V30.6698H40.9478V33.0958H40.291Z" fill="white"/>
<path d="M48.5159 72.2302C48.5159 74.9071 50.6856 77.0768 53.3625 77.0768C56.0394 77.0768 58.2091 74.9071 58.2091 72.2302C58.2091 72.2262 58.2086 72.2222 58.2086 72.2188H61.8466C61.8466 72.5365 61.8292 72.8552 61.7934 73.1724C61.7665 73.411 61.4886 73.5905 61.2479 73.5905C60.4703 73.5905 59.7802 74.0469 59.4914 74.7529C59.196 75.4763 59.3865 76.3196 59.9657 76.8511C60.1482 77.0176 60.17 77.2971 60.0174 77.491C59.6191 77.9961 59.1677 78.4525 58.6735 78.8483C58.4801 79.0034 58.1967 78.982 58.0286 78.7961C57.5225 78.2362 56.6141 78.0279 55.9121 78.3208C55.1817 78.628 54.7213 79.3684 54.7661 80.1629C54.781 80.4125 54.5985 80.6292 54.3499 80.6586C53.716 80.7321 53.0766 80.7341 52.4407 80.6635C52.1956 80.6362 52.0126 80.4244 52.0206 80.1778C52.0484 79.3907 51.5821 78.6638 50.8592 78.3675C50.1656 78.0846 49.2637 78.2909 48.7585 78.8458C48.592 79.0288 48.3125 79.0511 48.1181 78.8995C47.61 78.5008 47.1476 78.0438 46.7459 77.5427C46.5893 77.3478 46.6126 77.0654 46.7966 76.8978C47.3873 76.3628 47.5777 75.5126 47.2709 74.7808C46.9781 74.0832 46.2542 73.6338 45.4249 73.6338C45.1559 73.6422 44.9645 73.4617 44.9346 73.2171C44.8958 72.887 44.878 72.5529 44.8789 72.2188H48.5164C48.5164 72.2222 48.5159 72.2262 48.5159 72.2302Z" fill="#3797E4"/>
<path d="M65.6781 62.2852H53.7933H52.4941H40.6093L35.8457 67.5295L40.6093 72.5342H52.4941H53.7933H65.6781L70.4417 67.5295L65.6781 62.2852Z" fill="white"/>
<path d="M60.7084 68.1668V70.3284H58.6999V68.1412L56.4531 64.3711H58.5722L59.7892 66.4306L61.0147 64.3711H62.9551L60.7084 68.1668Z" fill="#2C2C2C"/>
<path d="M54.7532 69.2901H52.4894L52.0894 70.3284H50.0469L52.6511 64.3711H54.6255L57.2297 70.3284H55.1531L54.7532 69.2901ZM54.2 67.8434L53.6213 66.3455L53.0426 67.8434H54.2Z" fill="#2C2C2C"/>
<path d="M43.7461 64.3711H46.6822C47.346 64.3711 47.9304 64.4931 48.4354 64.737C48.946 64.9753 49.3403 65.3186 49.6183 65.7668C49.902 66.215 50.0438 66.7427 50.0438 67.3498C50.0438 67.9568 49.902 68.4845 49.6183 68.9327C49.3403 69.3809 48.946 69.727 48.4354 69.971C47.9304 70.2093 47.346 70.3284 46.6822 70.3284H43.7461V64.3711ZM46.5971 68.7625C47.0283 68.7625 47.3715 68.6405 47.6269 68.3965C47.8878 68.1469 48.0183 67.798 48.0183 67.3498C48.0183 66.9015 47.8878 66.5554 47.6269 66.3115C47.3715 66.0618 47.0283 65.937 46.5971 65.937H45.7546V68.7625H46.5971Z" fill="#2C2C2C"/>
</svg>
