<svg width="40" height="41" viewBox="0 0 40 41" fill="none" xmlns="http://www.w3.org/2000/svg">
<path d="M34.5147 27.2756C34.0182 27.0029 33.3948 27.1843 33.1223 27.6806C32.8496 28.1769 33.0309 28.8004 33.5272 29.073C34.7487 29.744 35.4492 30.4879 35.4492 31.1139C35.4492 31.8796 34.3644 33.0664 31.3194 34.1008C28.3113 35.1229 24.2913 35.6857 20 35.6857C15.7087 35.6857 11.6887 35.1229 8.68058 34.1008C5.63564 33.0664 4.55078 31.8796 4.55078 31.1139C4.55078 30.4879 5.25133 29.744 6.47277 29.0729C6.96913 28.8003 7.15042 28.1769 6.87773 27.6805C6.60505 27.1842 5.98182 27.0029 5.48532 27.2756C4.12347 28.0238 2.5 29.297 2.5 31.1139C2.5 32.5067 3.45785 34.4924 8.02084 36.0427C11.2359 37.135 15.4902 37.7365 20 37.7365C24.5098 37.7365 28.7641 37.135 31.9792 36.0427C36.5421 34.4924 37.5 32.5067 37.5 31.1139C37.5 29.297 35.8765 28.0238 34.5147 27.2756Z" fill="white"/>
<path d="M12.2578 32.6184C14.3393 33.2064 17.0886 33.5303 19.9993 33.5303C22.91 33.5303 25.6593 33.2065 27.7409 32.6184C30.2875 31.8991 31.5787 30.8577 31.5787 29.5234C31.5787 28.1891 30.2875 27.1479 27.7409 26.4285C27.1755 26.2688 26.5607 26.1288 25.9071 26.0093C25.5521 26.6226 25.1801 27.2539 24.7912 27.9034C25.5148 28.0119 26.194 28.145 26.8109 28.3022C28.6851 28.7795 29.3697 29.3169 29.5105 29.5235C29.3697 29.7301 28.6851 30.2675 26.811 30.7448C25.0371 31.1966 22.7549 31.4543 20.3512 31.4773C20.2347 31.486 20.1174 31.4908 19.9993 31.4908C19.8811 31.4908 19.7639 31.486 19.6474 31.4773C17.2437 31.4543 14.9614 31.1967 13.1876 30.7448C11.3134 30.2675 10.6288 29.7301 10.4881 29.5235C10.6288 29.3169 11.3135 28.7795 13.1876 28.3022C13.8045 28.1451 14.4838 28.0119 15.2074 27.9034C14.8185 27.254 14.4466 26.6225 14.0916 26.0093C13.4379 26.1288 12.823 26.2688 12.2578 26.4285C9.71116 27.1479 8.41992 28.1892 8.41992 29.5234C8.41992 30.8577 9.71116 31.899 12.2578 32.6184Z" fill="white"/>
<path d="M19.9988 29.4399C20.9116 29.4399 21.7408 28.9748 22.217 28.1957C25.5536 22.7368 29.5309 15.5422 29.5309 12.2684C29.5309 7.01247 25.2548 2.73645 19.9988 2.73645C14.7428 2.73645 10.4668 7.01247 10.4668 12.2684C10.4668 15.5422 14.4442 22.7368 17.7807 28.1957C18.2569 28.9748 19.0861 29.4399 19.9988 29.4399ZM16.1675 11.6139C16.1675 9.50143 17.8863 7.78274 19.9988 7.78274C22.1114 7.78274 23.8302 9.50143 23.8302 11.6139C23.8302 13.7265 22.1114 15.4452 19.9988 15.4452C17.8863 15.4452 16.1675 13.7266 16.1675 11.6139Z" fill="white"/>
</svg>
