<svg width="40" height="41" viewBox="0 0 40 41" fill="none" xmlns="http://www.w3.org/2000/svg">
<path d="M36.7412 29.9365C35.6488 29.0202 29.2413 24.9627 28.1763 25.149C27.6763 25.2377 27.2938 25.664 26.27 26.8852C25.7966 27.4863 25.2766 28.0493 24.715 28.569C23.686 28.3204 22.6899 27.9512 21.7475 27.469C18.0516 25.6696 15.0658 22.6829 13.2675 18.9865C12.7853 18.044 12.4161 17.048 12.1675 16.0189C12.6872 15.4573 13.2501 14.9374 13.8513 14.464C15.0712 13.4402 15.4988 13.0602 15.5875 12.5577C15.7738 11.4902 11.7125 5.0852 10.8 3.9927C10.4175 3.5402 10.07 3.23645 9.625 3.23645C8.335 3.23645 2.5 10.4515 2.5 11.3865C2.5 11.4627 2.625 18.974 12.1112 28.6252C21.7625 38.1115 29.2738 38.2365 29.35 38.2365C30.285 38.2365 37.5 32.4014 37.5 31.1115C37.5 30.6664 37.1963 30.319 36.7412 29.9365Z" fill="white"/>
<path d="M28.75 19.4865H31.25C31.247 16.8352 30.1925 14.2934 28.3178 12.4187C26.4431 10.544 23.9013 9.48943 21.25 9.48645V11.9865C23.2385 11.9884 25.145 12.7792 26.5511 14.1853C27.9572 15.5914 28.748 17.4979 28.75 19.4865Z" fill="white"/>
<path d="M35 19.4865H37.5C37.495 15.1782 35.7814 11.0478 32.735 8.00145C29.6886 4.95505 25.5582 3.24141 21.25 3.23645V5.73645C24.8954 5.74075 28.3903 7.19079 30.968 9.76848C33.5457 12.3462 34.9957 15.841 35 19.4865Z" fill="white"/>
</svg>
