<svg width="40" height="41" viewBox="0 0 40 41" fill="none" xmlns="http://www.w3.org/2000/svg">
<g clip-path="url(#clip0_186_11578)">
<path d="M0.078125 18.2627V38.9914L13.4037 28.6271L0.078125 18.2627Z" fill="white"/>
<path d="M34.8438 12.87V19.2431L38.7791 16.1823L34.8438 12.87Z" fill="white"/>
<path d="M20.7553 1.01167C20.3192 0.644712 19.6822 0.644712 19.2461 1.01167L16.1387 3.62706H23.8627L20.7553 1.01167Z" fill="white"/>
<path d="M5.15609 12.87L1.2207 16.1823L5.15609 19.2431V12.87Z" fill="white"/>
<path d="M15.7148 29.799L1.65234 40.7365H38.3483L24.2858 29.799H15.7148Z" fill="white"/>
<path d="M26.5957 28.627L39.9213 38.9914V18.2626L26.5957 28.627Z" fill="white"/>
<path d="M19.7052 14.7493C18.7547 14.7493 17.7715 15.6735 17.7715 17.22C17.7715 18.7924 18.7305 19.8486 19.6263 19.8486C20.5696 19.8486 21.3431 18.745 21.3988 17.3573L21.4002 17.0627C21.3581 15.6936 20.673 14.7493 19.7052 14.7493Z" fill="white"/>
<path d="M24.2855 27.4552L32.5 21.0661V7.1427C32.5 6.49551 31.9753 5.97083 31.3281 5.97083H8.67188C8.02469 5.97083 7.5 6.49551 7.5 7.1427V21.0661L15.7145 27.4552H24.2855ZM11.7389 19.4793C11.1793 17.3515 11.4607 15.1084 12.5314 13.1632C13.6016 11.2186 15.3457 9.7802 17.4423 9.11278C19.6543 8.40848 22.003 8.61598 24.0554 9.697C26.1081 10.7781 27.6078 12.5965 28.278 14.8174C28.2817 14.8294 28.2852 14.8416 28.2884 14.8538C28.7338 16.5225 28.602 18.0979 27.8607 19.9615C27.3597 21.2212 26.1313 22.5673 24.1864 22.5673C23.4808 22.5673 22.8041 22.2779 22.2812 21.7524C22.1574 21.628 22.0459 21.4925 21.9461 21.349C21.2893 21.8832 20.4928 22.1923 19.6258 22.1923C18.4931 22.1923 17.3919 21.6425 16.6045 20.6837C15.8452 19.7593 15.4272 18.5293 15.4272 17.22C15.4272 15.9048 15.872 14.6879 16.6798 13.7934C17.4764 12.9114 18.579 12.4054 19.7047 12.4054C20.3238 12.4054 20.9122 12.553 21.4409 12.8311C21.5434 12.2879 22.0195 11.8775 22.5913 11.8775H22.5973C23.2445 11.8807 23.7666 12.4079 23.7634 13.0551L23.7311 19.5657C23.7301 19.7656 23.8091 19.965 23.9426 20.099C23.9888 20.1455 24.0819 20.2234 24.1864 20.2234C25.132 20.2234 25.548 19.4344 25.6828 19.0953C26.2302 17.719 26.334 16.6353 26.0287 15.4762C25.5386 13.8695 24.4505 12.554 22.9633 11.7707C21.4708 10.9846 19.7623 10.8339 18.1533 11.346C14.9815 12.3557 13.1596 15.6663 14.0056 18.883C14.7081 21.5543 17.1227 23.4731 19.8775 23.5493C20.5244 23.5672 21.0345 24.1062 21.0165 24.7532C20.9989 25.3891 20.4778 25.8926 19.8457 25.8926C19.8347 25.8926 19.8238 25.8925 19.8127 25.8922C17.9966 25.8419 16.204 25.1968 14.7648 24.0756C13.2697 22.9109 12.2234 21.3215 11.7389 19.4793Z" fill="white"/>
</g>
<defs>
<clipPath id="clip0_186_11578">
<rect width="40" height="40" fill="white" transform="translate(0 0.73645)"/>
</clipPath>
</defs>
</svg>
